<?xml version="1.0" standalone="no"?>
<!DOCTYPE svg PUBLIC "-//W3C//DTD SVG 20010904//EN"
 "http://www.w3.org/TR/2001/REC-SVG-20010904/DTD/svg10.dtd">
<svg version="1.0" xmlns="http://www.w3.org/2000/svg"
 width="720.000000pt" height="720.000000pt" viewBox="0 0 720.000000 720.000000"
 preserveAspectRatio="xMidYMid meet">
<metadata>
Created by potrace 1.15, written by Peter Selinger 2001-2017
</metadata>
<g transform="translate(0.000000,720.000000) scale(0.100000,-0.100000)"
fill="#000000" stroke="none">
<path d="M2890 6960 c-62 -11 -101 -27 -98 -41 2 -6 -3 -14 -11 -17 -9 -3 -11
0 -6 9 5 8 -1 5 -13 -5 -26 -23 -29 -34 -4 -15 16 12 16 12 0 -6 -9 -10 -34
-20 -55 -22 -104 -10 -280 -87 -344 -150 l-47 -45 -38 26 c-21 14 -48 26 -59
26 -11 0 -33 9 -50 20 -16 11 -40 20 -53 20 -13 0 -35 6 -50 13 -20 11 -54 12
-132 8 -92 -6 -112 -11 -162 -38 -32 -17 -55 -27 -52 -22 3 5 29 21 57 36 40
21 72 28 142 33 l90 7 -82 1 c-77 2 -86 0 -155 -36 -47 -25 -72 -44 -70 -53 2
-8 0 -11 -4 -7 -8 9 -34 -10 -34 -24 0 -6 8 -4 18 3 9 7 -1 -6 -23 -29 -21
-23 -41 -42 -44 -42 -3 0 8 14 25 32 16 18 20 26 9 18 -11 -8 -27 -24 -35 -35
-8 -11 -29 -36 -47 -56 -32 -36 -43 -56 -23 -44 16 10 11 -1 -7 -16 -14 -12
-16 -12 -9 1 4 8 -2 4 -13 -9 -23 -25 -28 -47 -9 -35 7 4 8 3 4 -5 -4 -6 -11
-9 -16 -6 -32 20 -40 -137 -14 -243 11 -44 13 -67 6 -74 -6 -6 -42 -13 -82
-16 -61 -4 -78 -10 -122 -41 -28 -20 -54 -42 -56 -50 -3 -8 0 -11 7 -7 17 11
13 0 -6 -15 -15 -12 -16 -12 -9 1 8 13 7 13 -6 0 -20 -20 -68 -168 -67 -205 1
-23 3 -20 9 15 9 48 26 100 34 100 3 0 -1 -17 -8 -38 -8 -22 -17 -74 -20 -118
-9 -106 -26 -213 -35 -218 -4 -3 -2 23 6 57 7 34 12 87 11 117 -1 49 -2 46 -9
-27 -4 -44 -12 -98 -18 -120 -14 -48 -14 -56 1 -47 7 4 8 3 4 -5 -4 -6 -11 -9
-16 -6 -4 3 -11 -2 -14 -11 -9 -23 -8 -26 7 -18 8 5 8 2 -2 -9 -15 -18 -26
-23 -16 -7 20 32 -32 -9 -171 -134 -49 -45 -72 -78 -41 -60 7 4 9 3 4 -2 -5
-5 -14 -9 -20 -9 -5 0 -12 -6 -15 -14 -3 -9 0 -11 8 -6 9 5 11 4 6 -4 -4 -6
-11 -9 -16 -6 -5 3 -21 -17 -35 -44 -27 -54 -32 -76 -13 -65 7 4 8 3 4 -5 -4
-6 -11 -9 -16 -6 -5 3 -17 -9 -26 -27 -27 -51 -33 -349 -9 -438 10 -36 22 -88
29 -116 8 -38 15 -50 26 -46 17 5 -23 -26 -60 -47 -23 -13 -24 -13 -11 2 7 10
19 17 27 17 7 0 15 4 18 9 4 5 -3 7 -14 4 -31 -8 -104 -102 -130 -168 -19 -48
-25 -86 -29 -186 -4 -83 -3 -125 4 -123 6 3 9 48 7 115 -2 62 0 115 5 120 4 4
7 -47 6 -114 l-1 -122 -31 -10 c-17 -5 -31 -13 -31 -18 0 -4 5 -5 12 -1 7 5 8
3 4 -5 -5 -7 -11 -10 -14 -7 -7 7 -32 -13 -32 -26 0 -5 6 -6 13 -2 6 4 3 -2
-7 -14 -23 -26 -34 -29 -16 -4 7 9 0 4 -15 -12 -16 -17 -25 -36 -22 -47 3 -10
0 -17 -5 -16 -6 1 -13 -4 -16 -12 -3 -9 0 -11 9 -6 8 5 11 4 6 -1 -5 -5 -14
-9 -20 -9 -7 0 -16 -18 -21 -40 -5 -22 -17 -66 -27 -98 -20 -61 -24 -157 -9
-222 6 -28 21 -51 52 -77 24 -21 48 -38 55 -38 7 0 16 -7 21 -16 6 -10 12 -12
16 -6 3 5 -9 17 -28 26 -18 8 -39 24 -47 33 -13 17 -13 17 7 1 11 -10 25 -18
30 -18 5 0 19 -8 32 -18 l23 -18 -22 -19 c-14 -12 -19 -14 -14 -5 5 9 0 8 -13
-4 -26 -23 -30 -44 -4 -25 14 11 13 10 -2 -9 -20 -23 -32 -30 -20 -10 4 7 3 8
-5 4 -16 -10 -38 -56 -45 -96 -5 -27 -4 -30 4 -15 l10 20 -3 -20 c-1 -11 -9
-20 -17 -20 -27 0 -44 -73 -44 -195 0 -85 4 -124 16 -150 9 -19 19 -45 23 -57
3 -13 65 -83 137 -155 72 -73 120 -119 107 -103 l-24 30 33 -29 c31 -29 42
-43 23 -32 -12 7 -21 -44 -21 -113 0 -61 22 -136 39 -136 6 0 10 -4 9 -10 -2
-5 -6 -9 -10 -8 -28 10 -63 -171 -63 -324 0 -100 2 -114 20 -130 11 -10 14
-11 7 -3 -6 7 -11 25 -11 40 l2 25 4 -25 c3 -14 12 -34 21 -44 10 -11 11 -16
5 -12 -24 13 -14 -26 22 -90 20 -35 41 -66 47 -70 7 -4 8 -3 4 4 -11 18 0 14
15 -5 10 -11 10 -14 2 -9 -18 10 -16 3 8 -38 12 -20 25 -34 29 -31 5 3 12 0
16 -6 4 -8 3 -9 -4 -5 -50 30 79 -131 143 -180 30 -23 219 -97 227 -89 2 2 2
-18 1 -43 l-1 -47 7 40 c7 36 8 37 10 10 1 -16 4 -41 7 -55 5 -20 3 -22 -5
-10 -9 11 -10 4 -5 -30 8 -53 21 -83 34 -75 5 3 12 0 16 -6 5 -8 3 -9 -6 -4
-10 6 -12 4 -6 -11 5 -10 12 -30 16 -44 13 -46 51 -111 60 -105 5 3 12 0 16
-6 4 -8 3 -9 -4 -5 -7 4 -12 3 -12 -2 0 -17 98 -101 127 -108 15 -4 34 -11 41
-17 19 -15 114 -58 119 -54 2 2 -23 16 -54 31 -32 15 -65 31 -73 36 -8 4 -29
14 -46 20 -17 6 -47 28 -65 48 l-34 36 42 -37 c23 -20 55 -39 70 -43 16 -4 34
-11 41 -17 21 -17 109 -55 161 -71 38 -11 76 -12 187 -5 76 4 155 12 174 18
50 13 140 22 115 11 -11 -5 -34 -9 -51 -9 -17 -1 -44 -6 -61 -11 -16 -6 -74
-15 -129 -19 -81 -7 -88 -8 -39 -10 33 0 87 4 120 10 33 6 83 15 110 19 l50 8
55 -52 c85 -80 123 -109 75 -58 -21 23 -37 42 -34 42 3 0 25 -21 49 -46 25
-26 39 -44 33 -40 -16 9 -17 -20 -1 -30 7 -5 8 -3 3 6 -5 8 -4 11 3 6 6 -4 9
-13 6 -20 -8 -20 104 -97 203 -140 45 -20 86 -36 91 -36 6 0 34 -11 64 -25 49
-23 64 -25 198 -25 132 0 150 2 195 24 28 13 61 36 75 52 l25 29 -30 -27 c-63
-56 -106 -68 -265 -68 -131 0 -150 2 -195 23 -27 13 -63 27 -78 31 -55 13
-193 85 -232 121 l-40 36 50 -37 c50 -37 175 -99 224 -111 14 -3 49 -17 76
-30 45 -21 64 -23 195 -23 132 0 150 2 195 24 28 13 61 35 74 49 13 14 29 23
37 20 7 -3 44 9 80 26 37 17 69 30 71 28 8 -8 -139 -68 -153 -63 -8 3 -12 2
-9 -4 10 -16 26 -12 100 24 121 58 205 172 213 288 6 87 -7 224 -25 245 -8 10
-11 11 -7 3 7 -13 6 -13 -10 0 -11 8 -14 16 -7 18 6 2 11 18 11 35 0 18 9 79
20 137 18 98 28 137 52 200 6 14 12 77 15 140 l5 115 -52 99 c-40 77 -51 105
-46 128 4 21 2 27 -7 22 -7 -4 -8 -3 -4 2 5 5 13 9 18 9 12 0 58 105 69 160 5
22 9 126 10 231 0 147 -4 202 -15 235 -9 24 -22 73 -30 110 -14 68 -38 126
-60 144 -15 12 -27 58 -14 49 5 -3 9 -15 9 -26 0 -12 3 -19 6 -15 11 11 -7 68
-19 60 -7 -3 -8 -2 -4 3 5 5 14 9 20 9 7 0 11 8 11 17 -1 10 3 16 8 15 6 -1
13 4 16 12 3 9 0 11 -8 6 -9 -5 -11 -4 -6 4 4 6 12 9 17 6 18 -12 31 50 26
125 -4 78 -47 197 -66 186 -5 -4 -13 -1 -17 5 -5 8 -3 9 6 4 10 -6 12 -4 7 9
-4 10 -7 21 -7 26 0 15 -52 70 -61 64 -5 -3 -9 0 -9 5 0 6 5 11 10 11 19 0 25
2 38 12 19 16 14 32 -5 17 -16 -13 -17 -12 -4 3 7 10 17 15 22 13 4 -3 15 8
24 24 18 36 19 45 3 35 -7 -4 -8 -3 -4 5 4 6 12 9 17 5 5 -3 16 10 24 30 11
27 15 72 13 183 l-2 148 -5 -162 c-4 -108 -10 -166 -18 -174 -10 -10 -11 -6
-3 20 5 18 8 174 6 354 -2 219 -1 266 3 147 l7 -175 2 170 c2 153 0 179 -22
255 -22 80 -104 288 -139 357 -16 29 -15 31 6 49 l22 19 -20 -25 -20 -25 28
24 c27 25 37 48 15 35 -7 -4 -4 2 6 14 23 26 34 29 15 5 -11 -15 -10 -14 9 1
23 20 31 43 10 30 -7 -4 -8 -3 -4 5 4 6 11 9 16 6 20 -13 91 164 89 224 0 14
-7 -3 -15 -38 -7 -36 -18 -69 -24 -75 -8 -8 -8 -3 -1 17 6 16 12 122 13 245
l2 217 6 -165 6 -165 2 156 c2 131 -1 168 -17 220 -29 94 -37 159 -21 169 8 5
16 17 18 27 6 23 4 100 -3 133 -4 21 -4 22 6 7 6 -10 11 -44 12 -76 1 -33 5
-54 10 -47 16 24 -14 163 -32 151 -5 -3 -13 0 -17 6 -4 8 -3 9 4 5 23 -14 11
11 -18 39 -16 16 -30 25 -30 21 0 -4 10 -17 23 -28 18 -16 16 -16 -11 2 -35
23 -36 30 -6 34 10 2 20 9 22 16 3 8 0 10 -8 5 -9 -6 -11 -4 -6 4 5 7 11 10
14 7 9 -10 32 16 25 28 -3 6 -3 8 2 4 9 -9 35 9 35 24 0 5 -6 6 -12 2 -7 -4
-4 2 6 14 23 26 34 29 16 5 -7 -10 -1 -6 13 10 34 35 49 92 41 153 -8 55 -60
168 -74 159 -5 -3 -12 0 -16 6 -5 8 -3 9 6 4 8 -5 11 -3 8 6 -3 8 -10 14 -16
14 -5 0 -14 4 -19 9 -5 5 -3 6 5 2 16 -9 15 -1 -3 35 -9 16 -20 27 -25 24 -5
-3 -12 0 -16 6 -4 8 -3 9 4 5 7 -4 12 -4 12 1 0 14 -19 38 -30 38 -5 0 -11 2
-11 5 -3 10 13 51 18 47 2 -3 0 -15 -7 -26 -6 -12 -8 -21 -5 -21 2 0 19 28 37
63 l33 62 -3 144 c-2 136 -12 188 -32 176 -5 -3 -12 0 -16 6 -4 8 -3 9 4 5 15
-9 15 9 1 35 -5 11 -14 17 -19 14 -5 -3 -12 0 -16 6 -5 8 -3 9 6 4 8 -5 11 -3
8 6 -3 8 -11 14 -19 14 -8 0 -33 12 -57 28 -23 15 -77 46 -119 68 -67 34 -86
39 -143 39 -60 0 -147 -11 -210 -25 -14 -3 -7 2 15 10 24 10 85 18 150 21
l110 5 69 -35 c38 -20 71 -34 73 -32 2 2 -29 20 -70 40 -67 33 -81 36 -153 35
-43 -1 -99 -5 -124 -9z m273 -128 c46 -22 87 -43 90 -48 3 -5 -36 11 -86 36
-83 40 -98 44 -167 44 -84 1 -143 -14 -180 -45 l-25 -21 35 20 c53 29 134 45
197 38 75 -9 181 -58 221 -104 19 -20 30 -30 26 -22 -7 13 -5 13 9 1 18 -15
23 -26 7 -16 -13 8 -13 -1 4 -55 24 -82 28 -153 12 -218 -19 -72 -19 -75 -3
-66 9 6 9 5 0 -8 -7 -8 -9 -19 -5 -24 4 -4 -9 4 -28 19 -19 15 -61 45 -92 67
-32 23 -58 43 -58 46 0 7 114 -72 129 -90 7 -9 18 -16 23 -16 13 0 -47 49
-135 111 -95 66 -131 89 -95 60 57 -46 71 -62 29 -32 -25 17 -49 31 -53 31 -4
0 -8 -18 -8 -39 0 -45 14 -59 140 -141 62 -40 177 -141 131 -115 -9 5 -12 3
-9 -6 3 -8 10 -14 15 -14 6 0 15 -4 20 -9 5 -5 3 -6 -4 -2 -16 9 -16 1 -2 -25
5 -11 14 -17 19 -14 5 3 12 0 16 -6 4 -8 3 -9 -4 -5 -18 11 -14 -10 5 -25 11
-10 14 -10 9 -1 -11 18 -1 15 15 -5 10 -11 10 -14 2 -9 -19 11 -15 -4 12 -49
14 -22 25 -49 26 -60 1 -16 2 -15 8 5 7 22 8 21 15 -18 5 -24 5 -46 2 -49 -3
-4 -6 5 -7 18 0 13 -7 1 -15 -29 -8 -30 -11 -59 -7 -64 3 -6 1 -8 -4 -5 -6 4
-18 -4 -27 -18 -20 -31 -21 -41 -1 -25 24 20 18 5 -7 -16 -14 -13 -19 -14 -14
-4 4 8 -3 3 -16 -11 -37 -41 -53 -42 -131 -5 -93 43 -205 76 -254 75 -36 -2
-35 -2 12 -9 71 -9 159 -37 242 -76 73 -34 92 -35 126 -6 16 14 17 14 12 0 -4
-9 -20 -21 -37 -27 -25 -9 -40 -6 -101 23 -124 58 -206 78 -295 71 -130 -11
-301 -53 -387 -96 l-40 -20 25 20 c14 12 43 26 65 31 22 6 56 17 75 24 39 15
175 44 230 49 30 3 28 4 -10 5 -41 2 -131 -18 -278 -61 -61 -18 -122 -60 -122
-85 0 -15 2 -15 10 -2 5 8 10 10 10 4 0 -7 12 -14 26 -17 29 -5 141 18 159 33
19 16 183 50 240 50 30 0 77 -5 106 -11 68 -15 236 -88 282 -123 34 -26 51
-46 26 -30 -8 4 -9 0 -4 -15 3 -12 -1 -51 -10 -88 -22 -87 -5 -247 24 -228 5
3 13 0 17 -6 4 -8 3 -9 -4 -5 -16 10 -15 -11 2 -65 9 -26 16 -103 19 -188 6
-206 -16 -295 -95 -388 -24 -28 -26 -33 -8 -18 14 11 31 27 38 35 12 13 12 13
5 -1 -11 -23 -73 -73 -80 -65 -4 3 -1 6 6 6 7 0 9 5 6 11 -12 19 -87 69 -104
69 -9 0 3 -9 26 -21 23 -11 48 -28 55 -37 7 -8 -5 -4 -27 11 -46 31 -75 35
-76 10 0 -15 -2 -15 -9 2 -5 11 -9 14 -9 7 -1 -21 29 -73 39 -67 5 3 12 0 16
-6 4 -8 3 -9 -4 -5 -16 10 -15 1 3 -35 9 -16 20 -27 25 -24 5 3 12 0 16 -6 5
-8 3 -9 -6 -4 -8 5 -11 3 -8 -6 3 -8 10 -14 15 -14 6 0 15 -4 20 -9 5 -5 2 -6
-6 -1 -9 5 -12 3 -9 -6 3 -8 10 -14 17 -14 7 0 19 -15 26 -32 8 -18 12 -33 9
-33 -3 0 -11 15 -19 33 -8 17 -14 26 -15 19 0 -7 8 -27 17 -45 9 -18 28 -66
43 -107 14 -41 31 -75 37 -75 6 0 15 -4 20 -9 5 -5 3 -6 -4 -2 -16 9 -17 13 8
-64 15 -46 23 -109 29 -215 l8 -150 -2 155 c-2 105 0 140 6 110 14 -78 15
-597 1 -611 -10 -10 -11 -6 -3 22 6 18 9 99 8 179 l-2 145 -6 -165 c-5 -117
-11 -178 -23 -209 -19 -50 -21 -62 -6 -41 9 13 10 13 6 0 -2 -8 -9 -15 -15
-15 -6 0 -24 -17 -39 -37 -41 -56 -138 -124 -225 -160 -43 -17 -76 -33 -74
-35 8 -8 133 49 186 84 30 20 77 59 104 87 28 29 41 39 31 23 -21 -33 -110
-107 -169 -142 -23 -13 -95 -45 -160 -70 -66 -25 -138 -60 -160 -76 l-41 -31
40 36 c22 19 66 45 98 57 32 12 56 23 54 26 -3 2 -29 -6 -58 -17 -68 -27 -138
-84 -136 -109 1 -11 6 -19 12 -18 5 1 9 -4 7 -11 -4 -23 25 -24 70 -1 23 12
57 26 73 30 76 21 167 58 238 97 42 24 77 46 77 49 0 2 -30 -12 -67 -33 -38
-20 -75 -41 -83 -46 -18 -9 -123 -46 -165 -57 -16 -4 -49 -18 -72 -29 -23 -12
-48 -22 -55 -22 -23 0 94 51 192 83 52 17 125 48 162 70 86 49 101 51 129 20
13 -15 18 -23 12 -19 -18 10 -16 5 12 -46 29 -51 41 -120 31 -173 l-7 -37 -27
25 c-37 35 -76 49 -107 37 -14 -5 -25 -12 -25 -15 0 -2 11 0 25 5 27 10 86 -7
99 -28 3 -5 -10 -2 -30 8 -37 20 -89 13 -106 -12 -6 -10 -8 -10 -8 1 0 8 -2
12 -5 9 -11 -11 8 -37 48 -68 l42 -31 -40 37 c-22 20 -31 32 -20 26 11 -6 34
-25 50 -43 17 -18 24 -29 16 -24 -9 5 -12 3 -9 -6 3 -8 10 -14 16 -14 5 0 14
-4 19 -9 5 -5 2 -6 -6 -1 -9 5 -12 3 -9 -6 3 -8 10 -14 15 -14 6 0 15 -4 20
-9 5 -5 3 -6 -4 -2 -21 12 -15 -11 22 -84 19 -38 35 -78 35 -89 0 -11 11 -55
25 -98 22 -66 27 -103 32 -244 8 -215 13 -194 -143 -597 -13 -34 -24 -72 -23
-85 0 -13 6 -4 14 23 24 78 54 156 55 137 0 -10 -11 -44 -25 -77 -41 -97 -27
-143 31 -105 15 9 23 12 19 5 -4 -7 -21 -18 -39 -26 -17 -7 -23 -13 -14 -14
21 0 75 45 83 70 6 20 36 23 52 5 5 -4 3 -6 -2 -3 -6 4 -9 -22 -6 -73 l3 -79
-61 -64 c-69 -71 -91 -80 -231 -96 l-85 -9 92 5 c103 5 142 16 193 51 l35 24
-33 -29 c-111 -99 -447 -69 -557 49 -17 18 -24 29 -16 24 9 -5 12 -3 9 6 -3 8
-10 14 -15 14 -6 0 -15 4 -20 9 -5 5 -3 6 5 2 6 -4 12 -6 12 -4 0 9 -39 101
-40 93 0 -5 -5 -3 -10 5 -12 18 -13 67 -2 74 4 2 7 -12 6 -32 l-3 -37 8 35
c12 56 -8 70 -115 76 -91 5 -159 18 -168 33 -3 5 11 3 32 -4 20 -7 75 -15 122
-18 l85 -5 -70 9 c-139 19 -148 22 -167 56 -36 61 -33 193 7 287 6 15 5 17 -5
11 -9 -5 -11 -4 -6 4 4 6 11 9 16 6 10 -6 40 46 39 67 0 7 -4 4 -9 -7 -8 -19
-9 -19 -9 2 -1 13 -9 24 -22 28 -16 5 -32 -3 -68 -36 l-46 -44 45 48 c30 32
51 46 63 43 9 -2 15 0 11 5 -11 19 -30 7 -108 -70 -45 -43 -104 -90 -132 -104
-71 -36 -154 -67 -184 -68 -24 -2 -24 -2 -2 -6 42 -8 205 64 265 117 19 16 38
30 42 30 22 0 -92 -79 -162 -112 -107 -50 -172 -62 -309 -54 -194 10 -379 72
-450 148 -16 17 -23 28 -15 23 9 -5 12 -3 9 6 -3 8 -10 14 -15 14 -6 0 -15 4
-20 9 -5 5 -2 6 6 1 9 -5 12 -3 9 6 -3 8 -10 14 -15 14 -6 0 -15 4 -20 9 -5 5
-3 6 5 2 17 -10 17 -9 -27 85 -91 196 -115 303 -97 428 7 44 6 52 -5 46 -8 -5
-6 1 4 12 16 18 16 24 5 42 -7 12 -19 21 -27 21 -7 0 -53 14 -102 32 -73 26
-97 41 -136 81 -27 28 -42 46 -34 42 11 -7 13 -4 6 11 -4 10 -17 42 -27 69
-10 28 -17 38 -15 23 2 -15 0 -25 -4 -22 -16 9 -10 40 11 59 22 20 27 40 8 29
-8 -4 -10 -3 -5 2 5 5 14 9 19 9 14 0 37 61 36 95 0 23 -1 23 -9 -5 -7 -25 -7
-24 -3 10 3 22 6 46 6 52 1 9 5 10 15 2 15 -13 18 -23 3 -14 -5 3 -10 -1 -10
-9 0 -14 11 -20 31 -18 4 1 15 -8 25 -20 11 -12 13 -18 5 -13 -9 5 -12 3 -9
-6 3 -8 10 -13 16 -12 5 1 9 -5 8 -15 0 -9 4 -16 11 -15 6 1 17 -5 25 -15 12
-15 11 -16 -4 -3 -10 7 -18 9 -18 3 0 -13 25 -33 32 -26 3 3 9 0 14 -7 4 -8 3
-10 -4 -5 -21 13 -13 -10 10 -30 19 -15 20 -16 9 -1 -24 31 -6 18 34 -25 22
-23 31 -36 20 -28 -20 15 -20 15 -1 -8 11 -13 54 -39 95 -60 69 -34 81 -37
164 -37 90 0 90 0 94 26 5 37 -13 48 -121 75 -110 27 -156 48 -211 99 l-40 37
45 -35 c64 -49 96 -63 196 -88 99 -24 131 -40 144 -72 6 -14 9 -17 9 -6 2 32
-46 60 -145 85 -115 30 -157 50 -203 98 -19 19 -38 33 -42 30 -4 -2 -11 1 -15
7 -5 8 -3 9 6 4 8 -5 11 -3 8 6 -3 8 -10 14 -16 14 -5 0 -14 4 -19 9 -5 5 -2
6 6 1 9 -5 12 -3 9 6 -3 8 -10 14 -16 14 -5 0 -14 4 -19 9 -5 5 -3 6 4 2 20
-11 15 9 -8 35 -11 13 -17 17 -13 9 7 -13 5 -13 -9 -1 -19 15 -23 26 -6 15 7
-4 10 -1 7 7 -3 8 -10 14 -16 14 -5 0 -14 4 -19 9 -4 5 -3 6 4 3 8 -5 10 5 6
35 -8 60 -23 84 -18 28 l4 -45 -9 40 c-6 22 -12 46 -13 54 -6 25 -34 31 -108
21 l-74 -9 75 4 c42 2 82 0 90 -6 12 -8 11 -9 -5 -5 -11 3 -52 2 -90 -3 -62
-7 -77 -6 -133 15 -93 35 -176 81 -208 117 -16 17 -21 25 -12 18 26 -19 22 2
-4 25 -12 10 -18 13 -14 7 10 -19 1 -16 -15 4 -12 14 -12 16 0 9 9 -6 12 -5 9
5 -3 8 -10 13 -15 12 -17 -3 5 151 30 207 36 81 42 104 26 95 -8 -5 -11 -4 -6
1 5 5 14 9 19 9 6 0 13 6 16 14 3 9 0 11 -9 6 -8 -4 4 11 26 34 21 22 42 41
47 41 4 0 12 -10 19 -21 8 -15 8 -19 0 -15 -31 20 -3 -18 54 -73 37 -36 65
-71 65 -82 0 -30 40 -121 64 -144 l20 -20 -17 21 c-9 11 -17 27 -16 35 0 11 2
11 6 -1 3 -8 15 -26 27 -39 11 -13 15 -21 7 -16 -9 5 -12 3 -9 -6 3 -8 10 -14
16 -14 5 0 14 -4 19 -9 5 -5 3 -6 -5 -2 -21 12 -13 -10 10 -30 19 -15 20 -16
9 -1 -21 27 -7 20 20 -10 13 -15 16 -21 6 -14 -30 23 -18 -4 15 -35 42 -39
101 -59 125 -44 16 10 16 10 -2 6 -26 -7 -91 16 -113 39 -16 18 -16 18 2 5 17
-13 82 -40 98 -40 4 0 17 10 28 23 20 20 21 20 15 2 -5 -15 -5 -17 3 -6 7 9 7
21 2 31 -10 19 -140 135 -151 135 -4 0 -11 4 -16 9 -5 5 -3 6 4 2 19 -10 16
-2 -14 57 -25 46 -28 62 -28 147 1 72 6 111 23 159 26 75 26 74 10 65 -7 -4
-8 -3 -4 5 4 6 11 9 16 6 5 -3 14 3 19 14 14 26 14 34 -1 25 -8 -4 -10 -3 -5
2 5 5 12 9 15 9 13 0 32 16 32 27 0 6 -7 5 -17 -3 -10 -7 0 6 22 30 22 23 49
47 60 53 11 6 0 -8 -25 -31 l-45 -43 53 43 c47 38 68 60 42 44 -5 -3 -10 -2
-10 4 0 5 -16 15 -35 21 -31 10 -39 9 -65 -10 -16 -12 -30 -19 -30 -16 0 2 14
14 30 26 26 19 35 20 63 11 17 -7 27 -7 22 -2 -6 5 -22 12 -36 16 -21 5 -35
-2 -77 -40 -47 -42 -71 -77 -39 -59 8 5 8 2 -2 -9 -16 -20 -26 -23 -15 -4 5 8
2 8 -9 -2 -19 -15 -23 -36 -5 -25 7 4 8 3 4 -5 -4 -6 -12 -9 -17 -5 -5 3 -16
-10 -24 -30 -18 -43 -19 -49 -3 -40 7 4 8 3 4 -5 -4 -6 -12 -9 -17 -6 -10 7
-24 -26 -35 -80 -5 -27 -4 -36 5 -31 7 5 9 1 4 -10 -4 -11 -8 -13 -11 -6 -2 7
-8 9 -13 6 -6 -3 -5 -11 2 -20 23 -28 2 -13 -32 23 -18 20 -28 32 -20 28 9 -5
12 -3 9 6 -3 8 -10 14 -16 14 -5 0 -14 4 -19 9 -5 5 -3 6 5 2 15 -9 15 4 1 41
-6 15 -14 62 -18 103 -7 66 -8 69 -10 25 0 -28 5 -74 12 -102 8 -29 10 -50 6
-48 -22 15 -36 172 -19 225 l8 25 2 -25 c1 -19 5 -15 16 20 17 56 18 73 2 64
-8 -4 -10 -3 -5 2 5 5 12 9 16 9 4 0 22 17 41 39 19 21 43 42 54 47 17 8 15 9
-9 4 -28 -4 -29 -4 -7 7 19 9 26 8 40 -7 9 -10 11 -15 5 -11 -30 17 -9 -16 31
-49 31 -25 52 -35 68 -32 22 4 22 4 -2 6 -14 1 -41 15 -60 32 l-35 31 40 -26
c45 -29 86 -33 105 -11 10 12 10 18 0 30 -7 8 -18 15 -24 15 -6 0 -22 10 -36
21 l-25 21 30 -17 30 -18 -25 29 c-39 45 -44 50 -36 37 11 -20 1 -15 -20 9
-19 22 -19 22 0 8 18 -14 19 -13 12 5 -47 120 -68 188 -76 244 l-9 66 3 -65
c3 -45 1 -58 -5 -42 -14 36 -21 232 -11 282 7 36 9 23 6 -65 l-3 -110 9 109
c7 81 17 130 40 189 34 89 34 91 18 81 -7 -4 -8 -3 -4 5 4 6 11 9 16 6 5 -3
14 3 19 14 14 26 14 34 -1 25 -9 -5 -8 -2 1 9 8 10 16 15 19 13 2 -3 49 35
103 84 58 53 107 90 119 90 12 0 18 5 15 10 -9 15 -40 -5 -125 -79 -76 -67
-132 -112 -100 -80 37 38 177 157 195 167 16 9 24 7 42 -9 21 -20 77 -38 121
-39 25 0 30 27 10 50 -11 12 -10 12 4 1 9 -7 18 -22 20 -34 2 -12 9 -21 16
-19 9 1 11 -2 6 -10 -5 -7 -11 -47 -15 -88 l-7 -75 2 85 c2 48 0 76 -5 65 -4
-11 -8 -48 -8 -82 l-1 -63 -47 0 c-44 0 -238 -54 -248 -69 -2 -4 42 7 97 26
75 24 118 33 162 31 l61 -1 -75 -7 c-41 -4 -111 -20 -155 -35 -44 -15 -90 -27
-102 -26 -26 1 -35 -11 -27 -33 6 -15 7 -15 18 0 10 14 12 11 10 -15 -1 -23 5
-36 23 -50 26 -21 46 -19 78 9 37 32 96 53 143 51 25 -1 43 1 40 4 -16 16 -97
5 -142 -19 -27 -14 -51 -25 -53 -23 -2 2 20 16 49 32 38 19 67 27 102 26 52
-1 59 -4 62 -25 4 -31 44 -107 53 -102 5 4 13 1 17 -5 4 -8 3 -9 -4 -5 -15 9
-15 1 -1 -25 5 -11 14 -17 19 -14 5 3 12 0 16 -6 4 -8 3 -9 -4 -5 -21 13 -13
-10 10 -30 19 -15 20 -16 9 -1 -19 24 -8 21 15 -4 12 -13 14 -19 5 -17 -7 2
-16 -3 -19 -11 -3 -8 0 -11 7 -7 17 11 13 0 -6 -15 -15 -12 -16 -12 -8 1 8 13
7 13 -8 1 -18 -14 -24 -36 -7 -26 18 11 11 -1 -12 -21 -22 -19 -23 -19 -8 1
15 20 14 20 -8 1 -23 -20 -31 -42 -9 -30 7 4 9 3 4 -2 -5 -5 -14 -9 -20 -9 -5
0 -12 -6 -15 -14 -3 -9 0 -11 9 -6 8 5 11 4 6 -1 -5 -5 -14 -9 -20 -9 -7 0
-13 -11 -14 -25 -2 -23 -2 -23 7 -5 l10 20 -3 -20 c-1 -11 -8 -20 -15 -20 -16
0 -41 -42 -42 -68 0 -10 4 -15 10 -12 6 4 7 -1 3 -11 -4 -11 -8 -13 -11 -6 -2
7 -8 12 -13 12 -6 0 -7 -4 -4 -10 11 -18 -1 -11 -21 12 -19 22 -19 23 1 8 20
-14 20 -14 2 7 -10 12 -49 37 -87 57 -57 30 -78 36 -126 35 -33 -1 -70 -4 -83
-8 -27 -7 -36 -38 -18 -60 10 -12 9 -13 -3 -6 -12 6 -12 5 -3 -5 6 -7 34 -12
65 -12 66 0 122 -21 171 -65 20 -18 33 -33 29 -33 -5 0 -19 12 -33 26 -13 14
-40 33 -59 41 -37 17 -154 28 -129 13 7 -5 24 -7 37 -3 38 9 113 -26 167 -78
28 -27 54 -49 59 -49 4 0 -2 9 -15 21 l-24 21 31 -21 c30 -19 30 -21 23 -73
-14 -100 -10 -203 11 -270 11 -34 19 -72 19 -83 0 -11 -2 -15 -4 -10 -43 141
-48 171 -43 290 3 74 2 101 -2 70 -15 -92 -11 -200 9 -266 10 -35 22 -77 25
-92 4 -15 11 -25 16 -22 5 3 7 -1 4 -9 -8 -21 23 -76 44 -77 9 0 1 -6 -19 -14
-35 -12 -78 -39 -144 -86 -16 -12 -12 -5 10 14 22 20 62 47 90 61 27 14 43 26
36 26 -19 0 -91 -45 -139 -87 -40 -35 -82 -119 -82 -162 0 -18 29 -51 46 -51
16 0 74 49 74 62 0 6 -6 5 -15 -2 -24 -20 -18 -5 7 16 13 12 18 13 13 4 -8
-13 -7 -13 8 -1 19 15 23 36 5 25 -7 -4 -8 -3 -4 5 4 6 11 9 16 6 5 -3 14 3
19 14 14 26 14 34 -2 25 -6 -4 -5 0 3 9 8 8 41 30 74 47 55 31 59 31 75 15 9
-10 10 -15 4 -11 -32 18 -6 -16 70 -91 102 -101 191 -153 274 -158 l58 -4 -58
9 c-88 14 -184 71 -269 159 l-73 76 75 -72 c99 -94 192 -145 268 -147 51 -1
57 1 57 19 0 15 -24 32 -103 71 -56 27 -107 55 -113 61 -7 7 40 -14 102 -45
78 -39 118 -65 126 -82 8 -15 13 -19 13 -9 0 25 -40 55 -124 94 -44 20 -92 45
-107 56 -30 21 -44 25 -34 9 13 -20 -2 -9 -40 32 -22 23 -32 36 -22 29 30 -23
18 4 -15 35 -18 16 -24 19 -14 7 27 -32 15 -29 -15 4 -13 14 -18 23 -10 18 9
-5 12 -3 9 6 -3 8 -10 14 -15 14 -6 0 -15 4 -20 9 -5 5 -2 6 6 1 9 -5 12 -3 9
6 -3 8 -10 14 -15 14 -6 0 -15 4 -20 9 -5 5 -3 6 5 2 17 -10 15 -5 -13 46 -14
25 -33 87 -44 139 -11 55 -20 81 -21 64 l-2 -30 -9 35 c-8 37 6 206 21 243 8
21 9 21 10 2 2 -17 3 -16 10 5 11 36 11 60 -1 35 -7 -16 -8 -14 -4 9 4 16 13
43 21 60 14 30 14 27 0 -24 -4 -14 13 17 38 69 51 103 51 105 34 95 -7 -4 -10
-4 -6 0 3 4 10 8 15 8 12 0 33 19 33 30 0 6 -7 5 -15 -2 -24 -20 -18 -5 7 16
13 12 18 13 13 4 -8 -13 -7 -13 8 -1 18 14 24 36 7 26 -16 -10 -11 1 7 16 15
12 16 12 8 -1 -8 -13 -7 -13 8 -1 18 14 24 36 7 26 -16 -10 -11 1 7 16 15 12
16 12 8 -1 -5 -9 0 -8 13 4 26 23 30 44 5 25 -10 -7 -2 4 17 25 41 43 147 116
171 116 9 0 23 7 30 16 11 13 11 23 -3 60 -8 24 -12 41 -7 38 5 -3 15 -26 23
-52 8 -26 15 -39 15 -29 1 10 -14 51 -31 90 -28 62 -33 83 -32 152 0 49 7 100
18 132 19 58 18 110 -2 105 -8 -1 -10 2 -7 8 7 12 -22 50 -38 50 -5 0 -1 -8
10 -17 10 -10 13 -14 6 -9 -8 5 -19 4 -28 -4 -12 -10 -15 -10 -15 1 -1 31 -18
-19 -39 -111 -25 -106 -27 -305 -4 -305 6 0 15 -4 20 -9 4 -5 3 -6 -4 -2 -7 4
-17 -2 -22 -13 -14 -26 -14 -34 2 -25 7 4 9 3 4 -2 -5 -5 -14 -9 -19 -9 -6 0
-13 -6 -16 -14 -3 -9 0 -11 9 -6 8 5 5 -1 -5 -13 -11 -12 -21 -20 -24 -17 -7
7 -42 -25 -42 -38 0 -5 8 -3 18 4 9 7 2 -3 -17 -24 -24 -25 -38 -34 -46 -27
-7 5 -14 8 -17 5 -3 -3 -11 2 -19 12 -12 14 -12 15 0 9 9 -6 12 -4 9 5 -3 8
-10 14 -16 14 -5 0 -14 4 -19 9 -5 5 -3 6 5 2 16 -9 15 4 -3 47 -26 64 -16
215 21 311 5 14 4 17 -4 12 -23 -14 -11 0 35 44 l48 45 -40 -45 -40 -45 48 45
c26 24 47 51 47 60 0 13 -1 13 -10 0 -8 -13 -10 -13 -10 2 0 14 -6 16 -32 12
-22 -4 -54 -27 -96 -68 -34 -33 -65 -61 -67 -61 -2 0 -17 24 -32 53 -18 35
-29 48 -35 40 -5 -8 -8 -1 -9 20 -2 55 -3 57 -27 60 l-24 4 7 126 c5 95 13
144 31 195 28 79 28 81 12 71 -7 -4 -1 6 15 23 20 21 45 34 95 45 66 17 159
31 134 21 -6 -2 -10 -8 -8 -12 3 -4 -8 -5 -25 -3 -39 6 -166 -28 -185 -49 -13
-15 -10 -15 23 2 41 20 149 46 157 38 3 -2 0 -22 -6 -44 -14 -52 -22 -200 -11
-219 4 -8 6 22 5 68 -3 59 1 95 12 127 9 24 14 31 10 14 -8 -35 -10 -201 -2
-230 5 -22 32 -32 42 -16 3 5 -4 7 -16 5 -19 -3 -18 -2 3 6 25 10 27 16 31 94
3 46 11 92 18 102 11 18 11 18 5 -1 -4 -11 -8 -56 -10 -100 l-4 -80 8 70 c4
39 12 88 16 109 6 30 5 37 -5 31 -9 -6 -9 -3 -1 14 11 20 13 20 36 5 18 -12
28 -13 44 -5 26 14 34 14 25 -1 -4 -7 2 -4 14 6 12 11 22 24 22 29 0 6 -7 2
-15 -9 -13 -16 -13 -14 0 19 9 21 13 47 10 57 -3 10 -2 21 3 24 5 3 8 -13 7
-35 -1 -22 0 -37 3 -34 3 3 7 26 8 50 2 33 0 44 -9 39 -7 -4 -5 0 3 8 17 17
120 63 163 72 15 4 36 15 47 26 11 11 20 15 20 10 0 -14 -60 -50 -85 -50 -11
-1 -40 -12 -65 -25 -54 -29 -46 -33 10 -5 22 11 48 20 58 20 29 0 87 43 87 64
0 34 -105 38 -165 6 -45 -24 -190 -90 -202 -93 -5 -1 -18 24 -28 57 -10 32
-15 55 -10 50 4 -5 14 -30 22 -55 l13 -46 90 43 c50 24 86 43 81 44 -5 0 -42
-16 -83 -35 -41 -19 -76 -35 -78 -35 -7 0 -45 131 -45 155 0 12 7 39 15 58 18
44 19 50 3 41 -8 -4 -10 -3 -5 2 5 5 14 9 20 9 7 0 13 8 15 19 3 13 0 16 -10
11 -7 -5 -10 -4 -5 1 5 5 14 9 19 9 6 0 13 6 16 14 3 8 0 11 -7 7 -17 -11 -13
0 6 15 15 12 16 12 8 -1 -8 -13 -7 -13 8 -1 20 16 23 36 5 25 -8 -4 -10 -3 -5
2 5 5 14 9 19 9 6 0 13 6 16 14 3 8 0 11 -7 7 -21 -13 -11 0 26 35 l38 34 -30
-35 c-27 -32 -26 -31 15 6 75 70 127 88 246 86 52 -1 86 -8 129 -27 31 -14 59
-24 61 -22 2 2 -24 16 -59 31 -102 43 -242 37 -325 -14 -19 -11 -31 -16 -27
-10 12 19 79 48 135 58 77 14 160 1 260 -42 47 -20 72 -34 55 -31 -26 5 -28 4
-10 -6 11 -7 30 -21 43 -32 12 -11 22 -17 22 -12 0 4 -8 14 -17 22 -16 13 -16
13 5 3 23 -11 25 -37 2 -32 -6 1 -14 -6 -17 -16 -5 -19 -54 -32 -124 -32 -15
0 -30 -4 -33 -8 -2 -4 21 -5 52 -1 61 8 134 10 117 4 -5 -2 -50 -8 -98 -13
-49 -6 -91 -13 -95 -16 -3 -4 4 -17 16 -29 20 -19 33 -22 105 -21 73 1 77 0
37 -8 -25 -5 -61 -6 -80 -3 -31 4 -32 3 -11 -5 13 -6 48 -8 76 -6 l52 5 7 -67
c3 -37 6 -104 6 -149 l0 -83 28 -1 27 -1 -25 -8 c-24 -8 -24 -8 -2 -9 12 -1
31 8 43 20 17 17 20 29 15 59 -3 21 -10 82 -16 135 -6 53 -13 107 -16 120 -3
12 -2 25 3 28 5 3 9 -2 9 -11 2 -43 26 -241 34 -277 l9 -40 -4 45 c-18 173
-26 246 -30 256 -4 14 24 115 36 129 15 15 10 28 -6 15 -26 -22 -16 -4 12 21
20 18 24 19 13 4 -15 -20 -14 -20 8 -1 23 20 31 42 10 30 -8 -4 -10 -3 -5 2 5
5 12 9 15 9 4 1 28 14 53 31 25 16 64 37 85 46 21 9 50 21 64 27 24 10 24 10
-5 4 -34 -7 -116 -46 -157 -74 -14 -11 -30 -19 -35 -19 -12 0 43 37 99 66 64
33 136 56 156 51 14 -4 13 -5 -3 -6 -16 -1 -25 -17 -42 -75 -13 -41 -23 -82
-23 -90 0 -9 -9 -25 -20 -36 -22 -22 -19 -25 13 -9 21 10 21 10 3 -5 -11 -9
-27 -16 -37 -16 -27 0 -49 -60 -47 -132 l1 -63 7 78 c4 54 11 83 23 95 17 16
17 15 1 -17 -13 -25 -15 -51 -12 -108 3 -42 1 -69 -3 -61 -5 7 -9 8 -9 3 0
-15 30 -55 41 -55 6 0 7 6 3 13 -4 6 5 1 20 -13 34 -31 124 -38 232 -19 64 11
75 16 71 31 -7 25 2 22 13 -4 6 -16 9 -18 9 -7 1 27 -27 42 -72 39 -123 -7
-136 -6 -159 19 -13 13 -17 20 -9 16 11 -7 13 -4 6 11 -5 10 -9 34 -9 52 -1
22 -5 31 -14 27 -7 -3 -10 0 -7 5 3 6 12 10 20 10 14 0 20 24 29 100 2 19 3 7
2 -27 -1 -35 2 -57 6 -50 4 6 8 32 8 57 0 52 20 131 43 177 20 38 21 47 5 37
-8 -4 -10 -3 -5 2 5 5 14 9 19 9 6 0 13 6 16 14 3 8 0 11 -7 7 -25 -16 -9 5
24 29 87 67 216 69 348 7z m-2438 -3596 c28 -9 74 -16 104 -16 37 0 60 -5 73
-17 21 -18 23 -33 6 -33 -6 0 -19 -6 -28 -12 -9 -7 -6 -3 6 8 13 12 20 24 17
27 -2 3 -18 -9 -34 -28 -29 -33 -38 -52 -19 -40 18 11 11 -1 -12 -21 -22 -19
-23 -19 -8 1 14 19 14 19 -2 6 -20 -15 -25 -46 -5 -36 6 4 -3 -7 -21 -24 -41
-39 -90 -41 -147 -6 -22 14 -35 25 -30 25 6 0 24 -9 40 -20 40 -26 96 -26 126
1 l24 21 -25 -16 c-36 -24 -85 -19 -138 11 -25 15 -43 22 -39 16 4 -7 0 -16
-8 -21 -9 -4 -20 -31 -25 -58 l-9 -49 4 55 c2 36 0 48 -5 35 -5 -11 -9 -37 -9
-57 -1 -30 5 -42 36 -67 30 -24 46 -31 78 -29 l40 1 -40 4 c-25 2 -52 14 -70
29 l-30 26 32 -21 c17 -12 48 -21 70 -22 21 0 58 -4 83 -8 l45 -8 -45 -3 c-36
-3 -39 -4 -14 -7 27 -4 34 -11 56 -66 14 -34 30 -62 36 -62 6 0 14 -4 19 -9 5
-5 3 -6 -4 -2 -19 11 -16 -9 4 -25 15 -12 16 -12 8 1 -4 8 14 -6 41 -31 59
-55 111 -87 179 -110 27 -10 43 -18 34 -18 -13 -1 -16 -15 -18 -73 -1 -39 -5
-76 -7 -80 -14 -22 50 -213 66 -203 5 3 12 0 16 -6 4 -8 3 -9 -4 -5 -17 10
-15 -7 7 -56 10 -24 24 -55 30 -71 6 -15 16 -26 22 -25 6 2 14 -4 16 -12 4
-13 3 -13 -6 0 -15 22 -13 -1 4 -30 7 -14 19 -25 26 -25 7 0 14 -7 16 -15 4
-13 3 -13 -7 0 -9 13 -11 12 -8 -5 2 -11 8 -20 15 -20 6 0 15 -4 20 -9 5 -5 2
-6 -6 -1 -9 5 -12 3 -9 -6 3 -8 9 -14 15 -14 6 0 30 -22 53 -48 24 -26 64 -59
90 -72 150 -76 531 -112 674 -65 33 11 67 26 75 33 9 7 34 25 57 39 l41 26 2
-76 c1 -43 10 -98 21 -129 21 -61 18 -71 -6 -15 -9 20 -19 74 -23 120 l-6 82
-55 -36 c-92 -61 -119 -67 -300 -74 l-165 -6 151 -2 c169 -2 225 10 308 67 25
17 47 31 49 31 2 0 7 -33 9 -72 7 -95 40 -168 107 -232 l51 -50 70 0 70 -1 29
-67 c17 -36 36 -70 42 -74 8 -4 9 -3 5 4 -11 18 0 14 15 -5 10 -11 10 -14 2
-9 -32 18 -8 -16 47 -68 89 -85 137 -103 310 -116 132 -10 152 -10 225 8 44
11 88 23 98 27 13 5 17 2 17 -12 0 -10 -6 -25 -12 -33 -11 -12 -10 -12 5 -1 9
8 19 12 21 10 2 -2 -8 -13 -22 -23 -14 -11 -22 -14 -18 -8 15 25 -12 10 -45
-24 -18 -19 -71 -56 -117 -81 -103 -56 -142 -88 -141 -116 0 -21 1 -21 9 -2 9
21 9 21 14 -27 1 -16 45 -23 57 -11 6 6 -3 8 -23 6 -33 -4 -33 -4 7 12 22 9
56 21 75 27 19 5 66 32 103 59 38 28 66 46 63 40 -4 -5 -2 -12 3 -16 6 -3 9
-23 8 -45 -1 -22 -5 -34 -9 -27 -4 6 -5 22 -2 34 11 44 -7 44 -70 -2 -35 -25
-78 -48 -95 -51 -17 -4 -34 -10 -36 -15 -12 -19 75 17 125 52 31 22 59 39 63
39 3 0 6 -12 6 -27 0 -16 9 -61 20 -102 18 -63 19 -83 11 -143 -6 -38 -15 -78
-20 -88 -13 -25 -13 -33 3 -24 7 4 9 3 4 -2 -5 -5 -12 -9 -16 -9 -4 0 -32 -22
-62 -49 -50 -45 -27 -39 31 8 14 12 11 8 -6 -9 -18 -16 -46 -40 -63 -53 l-29
-22 -7 31 c-4 17 -4 33 -1 36 3 4 6 -3 6 -15 0 -11 4 -23 9 -27 17 -10 -8 58
-29 79 -19 20 -20 20 -41 0 -12 -10 -30 -38 -40 -62 -22 -52 -23 -55 -6 -47 6
4 0 -5 -15 -18 -65 -60 -217 -88 -339 -63 -172 35 -249 74 -359 180 -47 45
-109 102 -138 128 l-52 46 27 7 c16 3 62 33 103 66 41 34 86 66 100 72 14 6
38 20 54 31 16 11 26 14 22 7 -5 -8 -3 -11 6 -9 7 2 34 -13 58 -32 95 -76 234
-116 270 -80 13 13 20 15 24 7 2 -7 5 -6 5 4 2 26 -39 55 -130 94 -48 20 -99
49 -114 65 -16 16 -32 27 -36 24 -4 -2 -11 1 -15 7 -4 8 -3 9 4 5 16 -10 15
-1 -3 34 -8 16 -22 53 -30 82 -15 50 -14 22 0 -42 3 -14 -1 -10 -9 10 -8 19
-15 44 -15 56 -1 11 -10 47 -20 78 -10 32 -15 54 -10 49 5 -5 16 -29 24 -54 8
-25 13 -31 9 -14 -9 56 -25 85 -48 85 -17 0 -19 2 -6 11 12 8 12 10 1 7 -22
-6 -43 -78 -38 -132 3 -35 2 -44 -5 -31 -10 17 -7 91 6 130 3 11 0 7 -8 -10
-18 -36 -20 -93 -5 -132 28 -69 29 -97 6 -123 l-22 -25 27 24 c21 18 26 31 23
50 l-5 26 10 -24 c9 -22 6 -29 -26 -62 l-37 -38 -46 26 c-67 38 -109 71 -122
94 -6 11 7 3 29 -18 46 -45 138 -97 147 -83 3 6 -1 10 -9 10 -29 0 -131 68
-150 101 -15 25 -20 53 -20 120 -1 48 -4 85 -8 82 -15 -8 -8 5 9 18 14 12 16
12 10 -1 -8 -16 3 -1 41 57 25 39 27 47 10 37 -8 -4 -10 -3 -5 2 5 5 14 9 20
9 7 0 13 16 13 35 2 33 1 33 -4 5 l-5 -30 -6 30 c-8 40 -40 44 -84 11 -19 -14
-38 -26 -42 -26 -19 0 77 60 97 61 l23 2 -23 4 c-15 3 -41 -10 -85 -43 -34
-27 -84 -56 -112 -66 -27 -9 -41 -17 -29 -18 11 0 43 11 69 25 27 13 51 23 53
21 2 -2 -23 -17 -55 -32 -53 -26 -68 -29 -165 -29 -125 0 -130 -6 -74 -71 33
-38 35 -39 116 -44 l83 -5 13 -35 c7 -19 13 -30 13 -24 1 6 -4 25 -10 43 l-11
31 -78 0 c-64 0 -82 4 -101 21 l-24 20 27 -16 c20 -13 46 -16 106 -13 47 2 79
-1 80 -7 1 -5 12 -50 25 -98 14 -49 21 -85 16 -80 -5 5 -13 26 -18 48 -5 22
-9 31 -10 19 -1 -31 28 -111 47 -126 13 -11 14 -11 7 2 -8 13 -7 13 8 1 19
-15 23 -26 6 -15 -7 4 -10 1 -7 -7 3 -8 10 -14 15 -14 6 0 15 -4 20 -9 5 -5 3
-6 -4 -2 -7 4 -13 3 -13 -3 0 -20 114 -100 126 -88 3 2 -9 10 -25 17 -17 7
-36 18 -42 26 -6 8 9 2 35 -12 25 -14 46 -27 46 -28 0 -2 -24 -19 -54 -39
-121 -80 -417 -138 -556 -108 -86 18 -209 72 -249 110 -20 18 -28 28 -18 21
10 -7 17 -8 17 -2 0 13 -25 33 -32 26 -3 -3 -9 0 -14 7 -4 8 -3 10 4 5 15 -9
15 -1 1 25 -5 11 -14 17 -19 14 -5 -3 -12 0 -16 6 -4 8 -3 9 4 5 16 -9 15 3
-3 34 -7 14 -19 25 -26 25 -7 0 -16 13 -20 29 -12 42 -2 46 10 5 5 -19 10 -27
10 -18 1 9 -5 32 -13 50 -8 19 -17 60 -21 91 l-7 58 53 1 c30 0 63 4 74 8 11
5 -11 6 -51 3 -42 -2 -79 0 -90 6 -15 8 -6 10 36 5 36 -3 77 1 119 12 35 9 66
14 69 11 3 -3 -1 -6 -9 -6 -12 0 -14 -10 -9 -52 7 -65 27 -102 77 -149 55 -52
114 -78 191 -85 78 -7 162 13 199 48 30 28 29 42 -3 67 -23 18 -39 21 -113 19
l-86 -2 92 -5 c59 -4 97 -11 105 -20 11 -11 10 -12 -9 -2 -12 6 -56 11 -98 11
-42 0 -96 5 -120 11 -57 14 -118 67 -132 114 -14 44 -3 37 13 -8 14 -40 69
-85 114 -92 l35 -5 -35 11 c-56 17 -86 45 -109 101 -12 28 -19 50 -17 47 9 -9
246 226 256 254 9 25 7 29 -16 37 -40 16 -45 14 -118 -57 -38 -38 -66 -62 -62
-55 11 18 3 15 -54 -23 -29 -19 -48 -35 -43 -35 4 0 26 12 48 27 22 15 34 20
28 11 -29 -35 -153 -88 -230 -99 -187 -26 -366 24 -468 132 -22 23 -34 38 -26
34 9 -5 12 -3 9 6 -3 8 -10 14 -16 14 -5 0 -14 4 -19 9 -5 5 -2 6 6 1 9 -5 12
-3 9 6 -3 8 -10 14 -16 14 -5 0 -14 4 -19 9 -5 5 -2 6 6 1 9 -5 12 -3 9 6 -3
8 -11 13 -17 11 -7 -1 -10 2 -6 7 3 6 -15 47 -39 93 -49 91 -65 145 -76 258
l-7 75 -1 -60 c-1 -33 5 -87 13 -119 8 -32 10 -55 6 -50 -13 16 -31 114 -30
167 1 56 16 120 19 82 0 -11 9 5 19 35 12 38 14 57 7 62 -18 13 0 9 40 -9 28
-12 70 -17 150 -17 62 -1 110 -5 107 -9 -3 -5 4 -3 16 5 12 7 16 15 10 17 -8
2 -8 6 1 11 25 16 -3 30 -58 30 -90 0 -160 23 -201 66 -20 20 -30 33 -22 29 9
-5 12 -3 9 6 -3 8 -10 14 -15 14 -6 0 -15 4 -20 9 -5 5 -2 6 6 1 11 -6 13 -3
7 16 -17 57 -17 100 -1 173 17 77 17 77 -4 100 -20 22 -98 53 -107 43 -3 -2
16 -10 41 -17 24 -7 50 -19 57 -28 11 -13 10 -14 -7 -3 -11 6 -38 17 -60 25
-22 7 -40 17 -40 22 0 15 -15 34 -27 34 -6 0 -5 -7 3 -17 8 -10 -2 -4 -22 12
-20 17 -34 32 -33 34 2 2 14 -4 26 -15 13 -10 3 3 -22 29 -43 45 -72 68 -35
27 10 -11 16 -20 13 -20 -2 0 -15 12 -29 27 -13 14 -18 23 -11 19 15 -9 15 -1
1 25 -5 11 -14 17 -19 14 -5 -3 -12 0 -16 6 -5 8 -3 9 6 4 10 -6 11 -4 5 11
-50 118 -57 204 -24 309 11 37 18 76 16 86 -3 12 -1 17 6 12 6 -4 8 0 4 10 -4
10 -2 16 5 14 6 -1 13 4 16 12 3 9 0 11 -9 6 -8 -5 -11 -4 -6 1 5 5 14 9 19 9
6 0 13 6 16 14 3 9 0 11 -9 6 -8 -5 -11 -4 -6 1 5 5 14 9 20 9 5 0 12 6 15 14
3 9 0 11 -8 6 -8 -5 -11 -4 -6 3 5 8 18 7 48 -4 22 -7 48 -14 57 -13 9 0 -5 7
-31 15 -26 8 -50 18 -53 23 -3 5 12 4 32 -4 21 -7 61 -20 88 -29z"/>
<path d="M2285 6073 c-63 -16 -192 -130 -181 -160 3 -8 2 -11 -3 -8 -17 10
-25 -19 -36 -127 -10 -104 -10 -107 10 -111 11 -3 -7 -3 -40 0 -33 2 -78 11
-101 19 -22 8 -52 13 -65 10 -20 -3 -23 -8 -21 -32 8 -75 71 -114 188 -114 74
0 82 -2 105 -26 32 -35 139 -84 184 -84 l36 0 -8 -37 c-13 -64 -10 -108 7
-108 8 0 15 -7 15 -15 0 -14 33 -16 45 -3 3 3 -5 3 -18 0 -12 -3 -20 -1 -16 4
3 5 16 9 28 9 19 0 29 13 55 70 34 76 38 95 19 84 -8 -4 -10 -3 -5 2 5 5 14 9
20 9 5 0 12 6 15 14 3 9 0 11 -8 6 -9 -5 -11 -4 -6 4 4 6 11 9 15 6 11 -6 48
35 60 68 8 20 8 33 0 45 -9 15 -10 14 -5 -3 6 -19 5 -19 -8 -2 -7 9 -17 17
-21 17 -4 0 -32 -20 -61 -45 l-52 -45 -74 26 c-92 33 -130 53 -124 63 3 5 -4
17 -17 27 -21 19 -21 19 -7 -1 11 -16 11 -17 0 -8 -8 8 -15 40 -18 82 -3 63 6
117 35 198 4 12 3 15 -4 8 -21 -20 -46 -143 -41 -200 3 -31 1 -50 -3 -43 -25
39 6 215 44 253 11 11 16 13 11 5 -4 -8 13 3 40 24 40 34 97 110 68 92 -6 -4
-13 -2 -17 4 -13 20 -98 -17 -166 -74 -14 -11 -9 -5 12 14 34 32 64 51 129 78
26 11 19 13 -15 5z"/>
<path d="M2913 5598 c-44 -47 -93 -125 -93 -150 0 -16 -28 -28 -70 -28 -14 0
-32 -5 -40 -11 -12 -8 -11 -9 5 -5 11 3 47 7 80 10 l60 5 -70 -13 c-93 -17
-149 -43 -215 -101 l-55 -47 55 52 c30 29 69 59 87 67 41 17 43 26 4 12 -40
-14 -163 -128 -157 -145 3 -7 0 -16 -6 -20 -7 -5 -8 -2 -3 6 5 8 4 11 -3 7
-11 -7 -62 -91 -62 -102 0 -3 5 -3 12 1 7 4 8 3 4 -5 -4 -6 -11 -9 -16 -6 -5
3 -18 -12 -30 -34 -23 -47 -25 -55 -7 -45 7 4 9 3 4 -2 -5 -5 -14 -9 -19 -9
-6 0 -13 -6 -16 -14 -3 -9 0 -11 8 -6 9 5 11 4 6 -4 -4 -6 -11 -9 -16 -6 -4 3
-15 -6 -24 -20 -21 -32 -20 -41 2 -24 15 13 16 12 3 -3 -7 -10 -17 -16 -21
-13 -4 3 -15 -6 -24 -20 -21 -32 -20 -41 2 -24 9 7 0 -5 -20 -27 -21 -22 -52
-47 -70 -57 -32 -17 -32 -17 -8 0 50 37 81 66 75 71 -3 3 -20 -9 -38 -26 -18
-17 -61 -46 -97 -63 -62 -30 -66 -30 -124 -19 -94 19 -166 55 -213 108 -34 39
-44 45 -55 34 -11 -11 -10 -12 3 -7 9 3 22 -2 30 -12 12 -16 12 -17 -2 -6 -34
27 -79 -14 -79 -72 0 -32 61 -100 113 -126 37 -19 196 -49 261 -49 31 0 31 0
33 -57 1 -60 31 -154 59 -189 8 -10 12 -12 8 -4 -7 13 -5 13 9 1 19 -15 23
-26 6 -15 -7 4 -10 1 -7 -7 3 -8 10 -13 16 -12 7 2 9 -4 5 -15 -6 -15 -5 -16
13 -2 12 9 11 5 -5 -13 -27 -30 -41 -37 -20 -9 11 14 10 13 -9 -2 -23 -20 -31
-43 -10 -30 7 4 8 3 4 -5 -4 -6 -12 -9 -17 -5 -11 6 -42 -62 -36 -79 2 -7 7 3
11 20 4 18 12 35 17 38 5 4 5 -3 0 -18 -10 -25 1 -155 14 -178 6 -11 5 -11 -5
-2 -7 6 -16 38 -20 70 -6 51 -8 53 -9 17 -2 -61 17 -104 68 -157 81 -84 178
-127 289 -127 l52 0 0 -49 c0 -27 2 -56 6 -64 3 -10 -5 -16 -28 -21 -38 -7
-105 -51 -165 -110 -40 -37 -58 -66 -31 -50 7 5 8 3 4 -5 -5 -7 -11 -10 -14
-7 -7 7 -32 -13 -32 -26 0 -6 8 -4 18 3 15 11 15 11 4 -1 -7 -8 -18 -15 -25
-15 -6 0 -13 -8 -15 -19 -3 -13 0 -16 10 -11 7 5 10 4 5 -1 -5 -5 -14 -9 -20
-9 -5 0 -12 -6 -15 -14 -3 -9 0 -11 8 -6 9 5 11 4 6 -4 -4 -6 -12 -9 -17 -6
-11 7 -29 -37 -29 -71 0 -16 -6 -24 -17 -24 -12 -1 -7 -6 12 -15 31 -15 25
-15 -57 6 -62 15 -215 -11 -307 -52 -35 -16 -69 -29 -75 -29 -6 0 23 16 64 34
85 38 244 70 305 63 l40 -5 -33 10 c-44 15 -214 -14 -292 -49 -76 -34 -87 -35
-86 -10 1 12 -4 22 -11 22 -6 0 -15 4 -20 9 -5 5 -2 6 6 1 9 -5 12 -3 9 6 -3
8 -10 14 -15 14 -6 0 -15 4 -20 9 -5 5 -3 6 5 2 27 -16 10 14 -29 49 -41 37
-117 75 -147 75 -9 -1 7 -9 35 -20 56 -20 101 -48 124 -77 8 -10 -2 -5 -21 11
-66 54 -115 69 -227 70 -75 1 -105 -3 -115 -13 -9 -10 -10 -12 0 -7 6 4 12 4
12 -1 0 -11 73 -33 108 -33 32 0 92 -18 107 -32 6 -5 -3 -4 -20 2 -16 7 -55
16 -85 20 -30 4 -66 11 -80 15 -16 4 -13 0 9 -9 18 -9 47 -16 63 -16 94 0 168
-57 206 -157 13 -34 30 -67 39 -75 14 -11 16 -11 8 2 -8 13 -6 13 8 1 9 -7 14
-17 11 -22 -3 -5 2 -12 11 -15 15 -6 88 37 102 59 7 12 -10 2 -53 -30 -17 -13
-37 -23 -45 -23 -8 0 -1 7 16 16 16 8 37 21 45 29 46 39 199 95 262 95 18 0
65 -9 103 -20 75 -21 58 -21 -42 1 -55 11 -71 11 -135 -5 -40 -9 -89 -26 -108
-37 -19 -11 -26 -17 -15 -13 11 4 45 16 75 27 63 24 164 28 226 9 41 -12 41
-12 47 -70 14 -131 45 -208 97 -240 20 -12 18 -9 -5 11 l-30 27 42 -23 c36
-19 44 -20 55 -8 11 12 10 13 -2 7 -9 -5 -8 -2 3 7 10 9 15 22 11 33 -3 11 1
9 10 -6 8 -14 15 -21 16 -17 0 11 -29 67 -36 67 -3 0 -2 -5 2 -12 4 -7 3 -8
-5 -4 -6 4 -9 11 -6 16 3 4 -2 27 -11 51 -8 24 -19 69 -23 99 -7 43 -9 47 -10
20 0 -19 3 -51 9 -69 7 -24 6 -31 -1 -24 -17 17 -34 196 -22 235 9 28 10 23 7
-37 l-3 -70 9 67 c11 89 66 202 123 255 27 25 66 48 107 61 76 26 95 27 134 7
16 -9 31 -13 34 -10 7 6 -63 35 -86 35 -50 0 -149 -46 -202 -93 l-55 -50 55
55 c44 44 69 59 123 77 80 27 123 23 164 -15 16 -14 22 -23 16 -19 -19 9 -16
-10 4 -26 15 -12 16 -12 8 1 -8 13 -7 13 8 1 18 -15 23 -26 7 -16 -5 3 -10 0
-10 -8 0 -12 92 -107 104 -107 2 0 28 16 58 35 70 46 119 60 172 46 22 -5 42
-8 44 -6 10 9 -83 26 -111 20 -33 -7 -109 -47 -139 -72 -20 -18 -41 -8 -83 38
-28 32 -28 31 13 -4 23 -20 44 -37 46 -37 2 0 28 16 58 35 63 42 118 59 161
49 39 -8 68 -22 65 -32 -7 -24 106 -152 135 -152 7 0 -1 8 -18 19 -16 10 -39
29 -50 42 -13 15 -6 12 18 -9 41 -35 45 -36 66 -23 10 6 12 22 9 55 -7 61 4
50 13 -12 6 -46 6 -46 8 -9 2 70 -64 159 -141 192 -52 21 -48 10 5 -13 23 -11
53 -32 67 -48 l25 -29 -30 27 c-69 62 -204 88 -286 54 -19 -7 -45 -17 -59 -20
-22 -6 -23 -5 -7 4 34 22 82 33 162 40 l80 7 -70 1 c-52 2 -87 -4 -137 -22
-46 -17 -65 -20 -62 -11 3 7 0 16 -7 21 -8 5 -10 3 -4 -7 8 -12 6 -12 -8 0
-18 15 -23 26 -7 16 6 -3 10 -2 10 4 0 11 -73 72 -107 90 -12 6 -35 11 -52 11
-30 0 -31 2 -33 43 l-1 42 -6 -45 -6 -45 -7 55 c-3 31 -2 59 4 65 6 6 7 3 2
-10 -15 -41 5 -8 24 40 11 28 23 59 27 69 7 15 5 17 -6 11 -18 -10 -7 1 56 55
l50 43 -47 -47 c-26 -25 -44 -46 -40 -46 4 0 30 23 57 51 48 48 49 51 31 65
-32 23 -70 16 -126 -21 -29 -20 -47 -29 -40 -20 23 28 102 69 129 68 23 -2 23
-1 6 6 -24 10 -79 -15 -130 -60 -34 -30 -49 -58 -22 -43 7 4 9 3 4 -2 -5 -5
-14 -9 -19 -9 -6 0 -13 -6 -16 -14 -3 -9 0 -11 8 -6 8 5 11 4 7 -2 -4 -5 -37
-11 -75 -12 -76 -2 -169 25 -209 62 -13 11 -23 17 -23 13 0 -5 -6 -3 -14 3
-23 19 -40 97 -29 134 8 29 9 28 9 -23 0 -51 19 -119 29 -108 3 3 -2 21 -10
41 -20 48 -19 75 4 121 l20 38 -22 -18 -22 -19 20 23 c11 13 25 36 32 50 l12
27 -5 -30 -5 -30 16 34 c14 31 14 36 0 58 -16 23 -32 33 -19 11 5 -9 2 -9 -9
1 -18 15 -23 26 -7 16 6 -3 10 -2 10 3 0 11 -21 30 -33 30 -5 0 -12 4 -15 8
-4 4 -1 3 7 -1 11 -6 13 -4 6 11 -27 65 -33 108 -28 176 3 40 2 69 -3 65 -4
-4 -7 -27 -5 -51 1 -24 -1 -46 -6 -49 -10 -6 -8 86 1 102 4 6 11 9 16 6 5 -3
14 3 19 14 14 26 14 34 -1 25 -8 -4 -10 -3 -5 2 5 5 12 9 16 9 10 0 91 73 91
82 0 4 -18 -10 -40 -32 -22 -21 -41 -37 -43 -34 -2 2 19 24 47 49 27 25 46 39
42 33 -4 -7 -3 -13 2 -13 6 0 13 7 16 16 9 23 8 26 -6 18 -8 -4 -10 -3 -5 2 5
5 14 9 19 9 6 0 13 6 16 14 3 9 0 11 -9 6 -8 -5 -5 1 5 13 23 26 34 29 15 5
-9 -13 -6 -12 8 2 25 23 44 83 23 70 -9 -5 -11 -4 -6 4 4 6 11 9 16 6 5 -3 14
3 19 14 14 26 14 34 -1 25 -7 -4 -8 -3 -4 5 4 6 11 9 16 6 5 -3 16 8 25 24 18
35 21 65 4 41 -9 -13 -10 -13 -6 0 2 8 10 15 17 15 7 0 15 6 18 14 3 9 0 11
-9 6 -8 -5 -11 -4 -6 1 5 5 14 9 20 9 5 0 12 6 15 14 3 9 0 11 -8 6 -9 -5 -11
-4 -6 4 4 6 11 9 16 6 4 -3 15 6 24 19 24 38 101 86 169 106 34 10 56 19 49
19 -22 1 -121 -30 -127 -40 -4 -5 -11 -9 -18 -9 -26 0 38 33 96 50 64 18 186
27 287 20 l55 -3 -55 -7 -55 -7 55 1 c36 1 55 5 56 14 4 36 4 37 14 22 8 -13
10 -13 10 1 0 9 -10 24 -22 35 -22 19 -22 19 -8 0 14 -18 14 -19 -10 -5 -14 7
-54 17 -90 20 l-65 7 72 -2 c40 -1 67 2 60 6 -7 4 -33 8 -59 8 -27 0 -48 2
-48 5 0 3 7 22 15 42 18 43 18 46 3 37 -7 -4 -8 -3 -4 5 4 6 11 9 16 6 5 -3
16 9 25 26 13 25 14 34 4 43 -9 8 -10 8 -5 -1 4 -8 -5 -5 -23 5 -30 17 -30 17
-68 -18 l-38 -35 35 38 c25 28 41 37 57 34 12 -2 20 0 17 4 -12 19 -42 7 -81
-33z"/>
<path d="M2925 5053 c-11 -3 -53 -29 -92 -59 -63 -47 -164 -99 -174 -90 -2 2
-28 6 -58 10 l-54 7 5 -26 c6 -30 -7 -21 -15 10 -3 11 -4 -2 -2 -28 3 -68 29
-93 106 -101 32 -4 65 -3 73 1 8 5 -15 9 -57 10 -64 2 -75 5 -94 28 -13 14
-23 31 -23 38 0 7 9 -2 19 -19 17 -28 26 -32 78 -38 33 -4 67 -4 75 -1 8 3 21
-2 29 -11 9 -12 10 -15 2 -10 -19 11 -16 -9 4 -25 15 -12 16 -12 8 1 -4 8 -4
12 0 7 5 -4 10 -17 11 -30 2 -12 10 -51 18 -87 21 -88 20 -122 -8 -210 -22
-69 -27 -75 -56 -81 -17 -4 -34 -10 -38 -14 -4 -4 2 -5 13 -2 46 13 90 18 75
9 -8 -5 -36 -13 -62 -16 -48 -7 -74 -26 -65 -48 4 -8 6 -7 6 4 1 9 5 19 10 22
5 4 7 -4 3 -16 -5 -21 -4 -21 64 -12 38 4 105 8 149 9 72 0 86 -3 136 -32 30
-18 64 -43 75 -55 l19 -23 -25 21 c-41 35 -58 39 -20 5 19 -17 54 -43 78 -57
35 -22 46 -24 55 -14 9 10 9 11 0 6 -13 -7 -67 17 -78 34 -3 5 9 1 28 -10 41
-24 71 -18 63 14 -5 20 -5 21 9 2 9 -11 15 -14 15 -7 0 32 -171 182 -207 181
-4 0 15 -14 42 -30 62 -37 54 -39 -14 -4 -35 19 -72 28 -121 32 -39 2 -69 7
-67 11 35 64 40 88 35 206 -3 66 -2 104 2 85 7 -35 7 -35 9 -5 1 35 -55 159
-68 150 -5 -3 -13 0 -17 6 -5 8 -3 9 6 4 8 -5 11 -3 8 6 -3 8 -10 14 -16 14
-5 0 -14 4 -19 8 -4 5 -1 7 7 5 8 -2 14 2 15 9 0 7 7 18 15 25 12 11 12 10 0
-7 -11 -15 -8 -14 13 4 30 27 38 52 10 30 -10 -7 -7 -1 6 14 27 30 41 37 20
10 -7 -10 0 -6 16 8 17 14 46 36 66 48 51 30 66 49 50 64 -10 9 -11 8 -6 -4 7
-18 -20 -41 -82 -73 -54 -27 -37 -10 23 24 40 22 54 36 50 46 -3 9 -6 18 -6
20 0 5 -49 3 -75 -3z"/>
<path d="M2541 2944 c-18 -20 -30 -42 -27 -50 3 -8 0 -13 -7 -11 -17 3 -17
-217 0 -234 9 -9 11 -6 7 12 -2 13 -1 17 2 9 4 -8 16 -25 27 -37 l20 -23 -35
0 c-52 0 -193 28 -252 51 -28 10 -64 30 -81 44 -26 22 -24 22 20 -5 51 -30
187 -71 234 -69 14 0 -12 9 -59 18 -120 26 -155 43 -226 111 -34 33 -71 60
-81 60 -12 -1 -8 -5 12 -14 17 -7 39 -24 50 -37 17 -20 15 -20 -13 4 -49 40
-62 36 -63 -20 0 -36 -3 -43 -9 -28 -8 20 -9 19 -9 -1 -1 -34 99 -117 205
-169 46 -23 65 -25 225 -31 170 -5 176 -5 233 19 l60 25 57 -29 c59 -29 192
-69 231 -69 13 0 30 5 38 10 10 7 4 8 -20 4 -44 -7 -172 27 -249 65 l-57 29
-60 -25 c-57 -24 -63 -24 -233 -19 -160 6 -179 8 -225 31 -66 32 -109 62 -155
104 l-36 33 35 -26 c151 -116 175 -125 381 -132 169 -5 176 -5 233 19 l59 25
68 -33 c123 -59 269 -81 269 -40 0 21 -37 40 -105 55 -57 12 -115 35 -115 46
0 2 13 -2 28 -10 15 -8 46 -17 67 -20 38 -5 37 -5 -8 8 -29 9 -65 30 -92 55
-44 40 -46 41 -112 39 l-68 -1 72 -6 c59 -5 77 -11 95 -30 l23 -24 -32 23
c-30 21 -39 23 -122 17 -50 -4 -92 -3 -95 1 -3 5 9 7 27 5 18 -2 25 0 17 3 -8
3 -22 8 -30 11 -8 4 -18 7 -22 7 -3 1 -10 5 -15 10 -5 5 -2 6 6 1 10 -6 12 -2
7 13 -4 11 -11 40 -16 63 l-9 44 4 -45 c3 -34 1 -40 -6 -27 -12 21 -8 82 6 82
14 -1 35 42 38 79 1 21 -2 31 -13 31 -8 0 -15 7 -15 15 0 9 -11 16 -26 18 -20
2 -34 -6 -58 -34z"/>
<path d="M1672 2857 c-24 -25 -29 -43 -10 -31 7 4 8 3 4 -5 -4 -6 -11 -9 -16
-6 -14 9 -48 -66 -59 -131 -6 -33 -17 -88 -26 -124 -8 -36 -14 -95 -15 -132 0
-65 2 -69 43 -120 59 -72 129 -106 234 -115 61 -4 92 -2 131 11 29 10 54 21
57 26 3 4 -19 -1 -48 -12 -100 -39 -283 -5 -343 64 -15 18 -12 17 17 -5 57
-43 115 -59 214 -61 73 -1 98 3 132 20 23 12 40 17 37 13 -3 -5 2 -9 11 -9 10
0 13 5 9 13 -4 6 1 4 12 -5 27 -23 113 -61 215 -93 72 -23 107 -27 250 -32
115 -4 177 -2 200 6 27 9 31 9 21 -1 -10 -10 -61 -13 -200 -12 l-187 0 -109
37 c-61 21 -129 48 -153 62 -24 13 -41 19 -37 13 10 -16 118 -62 219 -94 85
-27 99 -29 277 -29 l188 0 0 -49 c0 -36 8 -62 30 -100 36 -64 56 -83 95 -90
l30 -6 -32 12 c-18 7 -38 19 -45 26 -8 8 1 6 21 -4 19 -9 66 -20 105 -23 l71
-6 -60 -6 -60 -6 60 1 c46 1 60 5 60 16 1 8 6 14 13 13 7 -2 9 4 5 14 -5 12
-3 14 8 8 44 -26 -37 45 -93 82 -67 43 -84 51 -73 33 10 -16 -1 -11 -16 7 -12
14 -12 15 0 9 10 -7 12 -2 6 22 -3 17 -3 52 1 77 6 43 10 48 55 71 27 13 49
27 49 29 0 3 -27 -8 -60 -25 -33 -17 -60 -28 -60 -25 0 2 24 17 53 31 28 14
75 42 102 61 l50 34 -40 -37 c-38 -35 -38 -36 -5 -12 40 28 80 83 79 107 0 10
-3 8 -9 -6 -13 -32 -15 -29 -15 19 0 64 -23 61 -103 -10 -73 -65 -109 -85
-222 -128 -68 -25 -87 -28 -205 -28 -112 0 -122 -1 -70 -9 153 -21 364 36 465
127 l35 31 -30 -33 c-34 -38 -86 -67 -195 -108 -67 -25 -88 -28 -195 -28 -188
1 -340 52 -445 150 l-47 44 -76 -27 c-42 -15 -75 -28 -73 -31 3 -2 30 6 62 17
31 12 58 20 61 18 8 -8 -144 -57 -178 -57 -87 0 -181 61 -193 125 l-6 30 11
-30 c26 -69 107 -116 193 -114 38 2 37 2 -14 9 -140 19 -192 79 -165 197 16
73 43 183 61 248 16 59 5 79 -38 73 -27 -4 -27 -4 -11 14 24 27 10 22 -15 -5z"/>
<path d="M3966 6935 c-108 -57 -206 -126 -206 -147 0 -5 5 -6 12 -2 7 4 8 3 4
-5 -4 -6 -11 -9 -16 -6 -5 3 -14 -3 -19 -14 -15 -27 -14 -44 2 -35 7 4 9 3 4
-2 -5 -5 -14 -9 -20 -9 -7 0 -13 -16 -14 -35 -1 -34 -1 -34 6 -5 3 17 7 -36 6
-117 0 -167 -12 -186 -18 -28 -3 97 -4 96 -2 -15 1 -112 3 -124 32 -182 17
-34 34 -59 38 -55 5 4 5 1 1 -6 -4 -7 -11 -10 -16 -7 -12 8 -33 -33 -24 -47 4
-6 3 -8 -4 -5 -10 7 -87 -115 -116 -185 -22 -53 -20 -133 4 -182 12 -23 44
-66 72 -96 28 -30 47 -48 43 -40 -5 8 -4 12 1 7 18 -17 11 -57 -15 -79 l-26
-23 25 30 25 30 -28 -25 c-37 -33 -57 -81 -57 -139 0 -39 5 -52 29 -75 34 -32
34 -37 -1 -164 -10 -40 -17 -83 -15 -95 3 -17 5 -16 6 8 1 17 7 39 12 50 8 17
8 16 3 -5 -12 -49 -17 -424 -6 -460 6 -19 15 -50 21 -69 13 -43 2 -32 -17 17
-11 26 -17 98 -22 237 l-6 200 -2 -181 c-2 -155 1 -190 17 -242 20 -62 61
-135 83 -148 9 -5 8 -2 -2 12 -9 12 -5 11 13 -5 28 -25 38 -43 12 -21 -29 24
-14 -4 25 -46 22 -24 40 -41 40 -37 0 4 -12 21 -27 37 l-28 31 33 -30 c32 -29
37 -50 12 -50 -16 0 -72 -126 -136 -308 -36 -100 -43 -182 -44 -505 0 -281 6
-342 30 -327 5 3 12 0 16 -6 4 -8 3 -9 -4 -5 -16 10 -15 1 3 -35 9 -16 20 -27
25 -24 6 3 7 0 5 -7 -3 -8 7 -25 22 -38 l28 -25 -20 25 -20 25 28 -24 27 -25
-22 -23 c-28 -30 -37 -30 -12 0 l19 22 -24 -20 c-32 -26 -67 -106 -39 -89 7 4
8 3 4 -5 -4 -6 -12 -9 -17 -5 -15 9 -47 -74 -60 -154 -13 -78 -2 -139 30 -165
12 -10 13 -9 6 3 -8 13 -7 13 8 1 19 -15 23 -26 6 -15 -7 4 -10 2 -8 -5 3 -7
9 -13 14 -13 14 0 35 -19 35 -31 0 -6 -6 -2 -14 9 -15 19 -15 19 -15 -1 1 -29
-15 -85 -34 -120 -8 -17 -18 -49 -22 -70 -3 -22 -8 -51 -11 -65 -4 -19 -2 -22
6 -10 14 21 12 9 -5 -39 -10 -30 -15 -100 -17 -264 -3 -211 -2 -224 19 -269
12 -27 20 -48 17 -48 -14 0 -46 99 -50 158 -6 74 9 396 20 427 3 11 0 6 -9
-12 -11 -24 -15 -83 -17 -255 l-3 -223 36 -85 c20 -47 41 -85 47 -85 5 0 14
-4 19 -9 5 -5 2 -6 -6 -1 -11 6 -13 3 -8 -15 4 -16 -9 -51 -44 -119 l-50 -96
-1 -110 c0 -94 3 -121 25 -187 22 -65 36 -129 60 -288 3 -15 5 -7 7 20 l3 45
6 -45 c3 -25 3 -47 -1 -48 -5 -2 -8 -8 -8 -13 0 -6 6 -7 13 -3 8 5 8 2 -2 -9
-16 -20 -25 -23 -15 -5 5 10 4 10 -6 1 -17 -15 -29 -85 -36 -193 -4 -69 -2
-94 14 -135 11 -27 25 -50 30 -50 6 0 14 -4 19 -9 5 -5 3 -6 -4 -2 -29 17 -9
-19 38 -70 50 -52 115 -96 162 -109 12 -3 -5 8 -38 25 -33 17 -80 53 -105 78
l-45 47 45 -41 c51 -46 99 -76 155 -94 28 -9 34 -15 24 -21 -9 -6 -2 -7 21 -4
21 3 30 2 22 -3 -17 -11 6 -31 75 -66 49 -24 61 -26 199 -26 132 0 152 2 203
24 31 13 77 31 103 41 26 9 50 20 53 25 5 8 -46 -10 -156 -56 -51 -22 -72 -24
-203 -24 -143 0 -148 1 -206 30 -33 17 -60 33 -60 35 0 3 27 -8 60 -25 58 -29
63 -30 202 -30 97 1 154 5 178 15 19 7 64 24 100 38 88 32 177 78 236 122 50
37 18 4 -42 -43 -16 -13 -8 -9 18 7 25 17 57 45 70 63 12 17 59 68 103 113
l80 82 60 -8 c33 -5 83 -13 110 -18 28 -6 79 -9 115 -9 59 1 56 2 -29 9 -52 4
-112 12 -135 18 -23 5 -60 12 -82 14 -40 5 -44 2 -100 -55 -33 -33 -67 -64
-77 -69 -10 -6 17 24 60 65 78 74 78 75 123 69 25 -2 59 -9 77 -15 50 -15 297
-27 342 -17 22 5 83 29 135 54 53 25 99 45 102 45 4 0 16 8 27 17 11 10 17 12
13 6 -12 -21 9 -14 32 10 26 28 29 45 5 26 -15 -11 -14 -10 1 9 20 23 32 30
20 10 -4 -7 -3 -8 5 -4 17 11 63 106 57 119 -2 7 -5 4 -5 -5 -1 -9 -5 -19 -10
-22 -4 -3 -6 6 -3 19 2 14 10 25 17 25 6 0 17 11 23 25 15 32 15 38 0 29 -7
-4 -8 -3 -4 5 4 6 12 9 17 6 13 -9 26 31 34 101 9 89 13 102 33 107 12 3 9 5
-8 6 -14 1 19 16 79 36 98 32 109 38 175 102 l71 68 -70 -72 c-63 -66 -76 -75
-148 -99 -43 -14 -77 -28 -74 -30 2 -2 37 8 79 21 67 23 83 34 152 103 43 43
81 85 87 93 13 20 11 31 -3 23 -8 -4 -10 -3 -5 2 5 5 13 9 17 9 9 0 70 89 70
102 0 3 -8 -1 -17 -8 -16 -11 -16 -11 -5 1 7 8 18 15 24 15 6 0 13 6 16 14 3
9 0 11 -8 6 -9 -5 -11 -4 -6 4 4 6 11 9 16 6 9 -6 41 49 55 94 5 18 4 22 -5
16 -9 -5 -11 -4 -6 4 4 6 11 9 16 6 5 -3 14 4 20 16 14 25 8 254 -8 314 l-11
40 5 -40 c10 -77 16 -297 7 -306 -4 -4 -8 51 -8 124 -1 124 -14 229 -36 287
-9 24 -9 24 6 6 14 -18 19 -39 16 -59 -1 -5 3 -6 8 -2 10 6 3 34 -19 76 -8 15
-6 30 10 65 11 26 20 63 20 83 0 60 -12 141 -20 136 -4 -3 -4 -22 1 -42 14
-61 11 -137 -7 -159 -15 -18 -15 -18 -5 3 13 26 14 104 2 155 -8 35 -7 38 53
95 33 32 43 39 21 16 -21 -24 -37 -43 -34 -43 12 0 134 119 184 180 83 101
121 247 95 362 -20 85 -80 235 -103 255 -14 12 -18 13 -12 3 8 -13 7 -13 -8
-1 -18 15 -23 26 -7 16 17 -10 11 12 -7 26 -15 12 -16 12 -8 -1 8 -13 7 -13
-8 -1 -16 13 -16 15 -1 32 10 11 22 19 28 19 7 0 27 13 45 28 39 32 60 89 63
172 1 54 2 55 6 10 7 -78 -16 -147 -62 -186 -22 -19 -45 -34 -52 -34 -7 0 -15
-4 -18 -9 -14 -21 37 4 76 39 48 42 69 97 67 178 -1 52 -16 113 -18 77 -1 -13
-7 -6 -16 20 -19 51 -18 56 1 25 10 -16 13 -18 9 -6 -3 11 -10 40 -16 65 -13
59 -73 172 -107 202 -20 19 -23 20 -12 4 15 -20 14 -20 -8 -1 -23 20 -30 32
-12 21 20 -12 9 12 -15 35 -17 16 -25 35 -26 59 l-2 36 -7 -35 c-4 -19 -5 7
-3 61 4 66 2 103 -7 120 -11 20 -10 22 1 11 8 -7 17 -44 20 -85 l6 -72 1 60
c1 40 -5 78 -19 115 -12 30 -23 65 -26 77 -3 12 -15 30 -26 40 -21 18 -21 18
-7 -2 11 -15 7 -14 -13 4 -28 25 -38 43 -12 21 8 -7 15 -8 15 -3 0 10 -52 60
-85 82 -11 8 -2 -3 20 -23 l40 -37 -46 33 c-35 24 -43 35 -33 41 8 4 14 16 14
26 0 9 9 51 20 92 11 41 19 94 18 119 l-1 45 -6 -50 c-4 -27 -7 25 -6 116 0
181 13 210 17 39 l2 -105 4 90 c2 50 -2 115 -8 145 -14 65 -96 243 -109 235
-6 -3 -13 0 -17 6 -5 8 -3 9 6 4 8 -5 11 -3 8 6 -3 8 -10 14 -16 14 -5 0 -14
4 -19 9 -5 5 -3 6 5 2 26 -15 10 12 -29 49 -23 22 -39 34 -35 28 13 -23 -13
-14 -42 15 -15 15 -18 19 -7 10 12 -10 25 -18 29 -18 4 0 -22 25 -57 55 -36
31 -68 63 -71 71 -3 8 -10 13 -15 9 -5 -3 -13 0 -17 6 -5 8 -3 9 6 4 9 -5 11
-2 6 11 -15 50 -25 117 -31 199 -9 121 -55 268 -98 313 -50 53 -105 79 -177
86 -89 8 -105 12 -105 22 1 5 7 34 14 64 7 32 11 93 9 147 -1 50 0 89 5 86 4
-2 8 -50 9 -106 l2 -102 3 96 c3 84 1 101 -18 133 -11 20 -25 33 -30 30 -5 -3
-6 1 -3 9 2 7 -12 32 -33 53 -21 22 -31 31 -23 20 12 -17 10 -17 -13 3 -27 24
-36 38 -17 26 28 -18 3 18 -52 72 -38 37 -88 74 -124 92 -54 26 -74 30 -165
32 -66 2 -112 -2 -126 -9 -12 -7 -33 -12 -46 -12 -13 0 -35 -9 -49 -19 -13
-11 -37 -21 -53 -23 -17 -1 -30 -9 -30 -16 0 -21 -57 -53 -72 -40 -7 5 -11 14
-8 18 3 5 -14 25 -37 45 -75 64 -242 131 -349 140 -8 0 -29 10 -45 22 -58 41
-106 54 -224 59 l-115 5 -69 -36z m317 -88 c31 -14 60 -35 67 -49 l11 -23 -18
21 c-10 12 -29 27 -43 35 -18 9 -14 2 15 -26 22 -22 43 -39 47 -39 3 -1 10 -5
15 -10 5 -5 3 -6 -4 -2 -17 9 -17 6 7 -48 12 -25 25 -85 31 -132 7 -65 15 -93
32 -113 12 -15 25 -28 30 -29 4 -1 7 -4 7 -7 0 -3 -3 -4 -6 -2 -5 2 -34 -57
-34 -70 0 -2 6 -1 13 3 8 6 8 3 -2 -9 -18 -23 -73 -31 -124 -19 -45 12 -91 6
-81 -9 3 -5 -2 -9 -10 -9 -8 0 -18 -5 -21 -10 -4 -6 -3 -10 2 -9 4 1 15 0 23
-4 36 -14 126 -27 190 -27 63 0 72 3 117 37 26 20 39 26 29 14 -11 -12 -35
-31 -54 -43 -30 -18 -43 -20 -125 -14 -51 3 -108 8 -127 11 -19 2 -8 -2 25
-10 33 -8 92 -14 131 -15 63 0 76 3 110 29 62 45 71 60 77 134 8 81 -5 120
-52 159 -17 15 -31 33 -31 41 0 8 -9 43 -20 77 -11 34 -20 67 -20 72 0 15 46
1 113 -33 64 -32 72 -34 61 -17 -4 6 9 -1 29 -16 34 -26 51 -46 27 -31 -12 7
-12 3 -4 -19 3 -9 14 -16 24 -16 11 0 22 -4 25 -10 4 -6 -1 -7 -12 -3 -16 6
-16 5 -4 -10 7 -9 17 -15 21 -12 5 3 12 0 16 -6 4 -8 3 -9 -5 -5 -12 8 -8 -22
10 -72 11 -30 11 -94 0 -124 -8 -23 -24 -212 -16 -193 2 6 9 51 15 100 6 50
14 113 19 140 l10 50 -4 -45 c-2 -25 -10 -101 -16 -169 -12 -117 -12 -124 6
-137 10 -8 30 -14 44 -13 l26 1 -25 8 c-22 7 -23 8 -4 9 20 1 21 8 27 119 4
64 11 133 17 152 l9 35 -4 -40 c-3 -22 -6 -89 -9 -150 -2 -60 -2 -83 0 -50 2
33 9 99 15 147 l12 87 46 -4 c43 -4 42 -3 -14 10 l-60 14 50 -4 c78 -7 127 6
131 32 4 25 2 26 -111 42 l-70 9 85 -3 85 -4 -70 10 c-43 6 -73 15 -78 24 -4
9 -12 13 -17 10 -4 -3 -6 4 -3 15 4 16 2 19 -13 15 -28 -8 68 35 151 68 108
42 239 38 323 -10 23 -14 42 -23 42 -20 0 15 -93 56 -145 64 -95 16 -160 3
-307 -61 -21 -9 -38 -14 -38 -12 0 5 71 39 135 63 129 50 301 22 371 -59 16
-19 16 -20 2 -9 -10 7 -18 9 -18 3 0 -13 25 -33 33 -27 4 3 5 2 2 -2 -7 -9 26
-44 36 -38 4 3 11 0 15 -6 4 -8 3 -9 -4 -5 -17 10 -15 -6 4 -32 8 -12 19 -20
24 -17 4 3 14 -3 21 -12 10 -12 10 -14 2 -9 -17 10 -17 7 13 -60 28 -64 29
-116 1 -209 -11 -37 -12 -54 -3 -65 9 -13 8 -13 -9 0 -11 9 -31 21 -45 27 -14
7 -65 30 -114 53 -53 24 -105 41 -131 42 -27 2 -41 6 -38 13 4 5 2 6 -3 2 -9
-9 -10 -11 -13 -44 -2 -16 -4 -16 -12 2 -9 19 -9 19 -6 0 1 -14 18 -24 61 -37
60 -18 186 -74 186 -82 0 -6 -91 34 -108 47 -7 5 -15 7 -18 4 -3 -3 20 -17 50
-31 51 -24 56 -29 56 -60 0 -62 17 -91 59 -102 30 -8 46 -7 67 3 l29 14 -25
-20 c-14 -11 -29 -19 -35 -17 -39 13 -56 14 -27 0 27 -12 37 -12 49 -3 26 22
38 -21 46 -161 1 -28 7 -45 15 -45 6 0 12 -4 11 -9 0 -5 7 -13 16 -19 12 -6
23 -3 41 14 22 21 24 30 23 113 0 50 -7 109 -14 131 -14 40 -14 40 -8 5 6 -41
0 -38 -14 5 -10 30 -9 31 19 33 44 4 150 -27 178 -51 l25 -22 -23 26 c-23 27
-115 57 -179 60 -25 2 -26 2 -4 6 12 3 54 -3 91 -12 53 -13 75 -24 101 -52 19
-20 28 -33 21 -29 -15 9 -8 -29 16 -84 10 -22 18 -82 22 -165 l7 -130 -1 127
c-1 70 2 124 6 120 8 -8 16 -251 8 -250 -3 0 -16 -1 -30 -2 -24 -2 -24 -3 5
-10 l30 -8 -36 -1 c-20 0 -41 -7 -46 -13 -15 -19 -24 -90 -11 -82 7 4 8 2 4
-5 -4 -6 -11 -9 -16 -6 -5 3 -14 -3 -19 -14 -15 -27 -31 -22 -97 35 -66 57
-111 75 -121 48 -5 -13 -7 -13 -14 -2 -6 9 -9 9 -9 1 0 -7 22 -36 50 -65 58
-61 78 -115 86 -228 5 -60 2 -87 -15 -134 -24 -68 -24 -69 -11 -61 16 10 11
-1 -7 -16 -15 -12 -16 -12 -8 1 8 13 7 13 -8 1 -19 -15 -23 -36 -5 -25 7 5 8
3 3 -5 -5 -9 -24 3 -64 41 -31 29 -40 36 -21 16 46 -52 34 -48 -15 3 -22 23
-34 39 -27 35 18 -11 15 9 -5 25 -11 10 -14 10 -9 2 11 -19 1 -16 -15 4 -12
14 -12 16 0 8 11 -6 13 -4 6 11 -4 10 -7 30 -5 44 9 65 4 231 -9 288 -8 34
-16 61 -18 58 -2 -2 3 -38 11 -80 9 -41 15 -112 14 -158 l-1 -83 -7 110 c-7
93 -21 174 -45 262 -3 10 2 5 10 -12 l16 -30 -6 30 c-4 17 -15 39 -26 50 -19
19 -19 19 -51 -13 -26 -26 -32 -39 -31 -71 1 -21 9 -55 17 -75 17 -40 23 -154
10 -201 -4 -16 -18 -52 -31 -80 -12 -27 -22 -63 -22 -80 1 -34 5 -26 13 26 4
19 13 44 21 55 13 17 13 14 0 -18 -27 -67 -21 -80 45 -112 33 -16 58 -31 56
-34 -3 -2 -20 5 -38 16 -18 11 -44 23 -58 27 -14 3 6 -10 43 -29 73 -39 82
-42 72 -26 -12 20 2 9 36 -27 l34 -38 -32 29 c-51 46 -39 26 14 -24 26 -25 41
-37 34 -27 -21 27 -7 20 20 -10 13 -15 16 -21 7 -14 -10 7 -18 9 -18 3 0 -13
25 -33 32 -26 3 3 9 0 14 -7 4 -8 3 -10 -4 -5 -18 11 -14 -10 5 -25 15 -12 16
-12 8 1 -8 13 -7 13 8 1 18 -15 23 -26 7 -16 -17 10 -11 -12 7 -26 15 -12 16
-12 8 1 -8 13 -7 13 8 1 19 -15 23 -26 6 -15 -7 4 -10 1 -7 -7 3 -8 10 -14 15
-14 6 0 15 -4 20 -9 5 -5 3 -6 -4 -2 -19 11 -16 2 22 -73 94 -187 108 -431 34
-600 -22 -51 -23 -55 -6 -45 8 5 8 2 -2 -9 -16 -20 -26 -23 -15 -4 5 8 2 8 -9
-2 -20 -16 -23 -36 -4 -25 7 4 9 3 4 -2 -5 -5 -14 -9 -20 -9 -5 0 -12 -6 -15
-14 -3 -9 0 -11 9 -6 8 5 11 4 6 -1 -5 -5 -12 -9 -15 -9 -13 0 -32 -16 -32
-27 0 -7 6 -6 15 2 30 25 14 3 -22 -31 -25 -22 -29 -24 -14 -6 40 45 19 31
-29 -20 -25 -26 -37 -41 -27 -34 24 19 21 8 -5 -15 -12 -10 -18 -13 -14 -6 10
16 -4 15 -23 -2 -9 -8 -52 -30 -96 -50 -44 -19 -80 -40 -80 -46 0 -13 -26 -31
-36 -24 -14 8 -17 -25 -3 -37 19 -16 111 -6 161 17 46 22 109 61 143 88 20 17
22 18 10 2 -35 -44 -162 -111 -241 -126 l-54 -9 52 4 c86 7 172 54 271 149 57
55 80 88 50 70 -9 -5 -9 -3 1 9 7 9 17 15 21 12 5 -3 11 -1 15 4 7 12 26 6 87
-30 30 -18 48 -24 51 -16 2 6 6 3 10 -7 4 -10 3 -15 -3 -11 -18 11 -11 -12 11
-36 11 -13 18 -18 14 -11 -9 17 0 15 16 -5 10 -11 10 -14 2 -9 -26 15 -12 -11
26 -48 26 -25 45 -37 55 -33 9 4 15 12 14 19 -2 7 2 12 9 13 6 0 14 3 17 6 10
10 -33 122 -57 147 -32 35 -139 112 -155 112 -8 0 -12 6 -9 13 64 154 77 209
77 334 0 126 -7 176 -24 166 -6 -3 14 20 44 51 69 72 116 97 194 102 42 2 56
0 46 -6 -8 -5 -11 -10 -7 -10 5 0 21 10 35 22 17 13 20 19 9 15 -11 -4 -16 -3
-12 3 3 6 15 10 26 10 10 0 19 5 19 10 0 6 -3 9 -7 8 -5 -1 -26 4 -48 10 -92
27 -168 10 -270 -59 -29 -20 -43 -24 -52 -17 -9 7 -13 7 -13 -2 0 -20 -10 -6
-20 29 -5 19 -5 29 1 26 5 -4 9 -14 10 -23 0 -9 3 -12 5 -6 6 13 -41 120 -57
130 -8 5 -10 3 -4 -7 8 -12 6 -12 -8 0 -19 15 -23 26 -6 15 7 -4 10 -1 7 7 -3
8 -10 14 -15 14 -6 0 -15 4 -20 9 -5 5 -3 6 5 2 21 -12 13 10 -10 30 -19 15
-20 16 -9 2 19 -25 8 -22 -15 4 -10 12 -13 18 -6 14 18 -11 15 9 -5 25 -15 12
-16 12 -8 -1 8 -13 7 -13 -8 -1 -9 7 -17 14 -17 15 0 1 15 15 32 32 29 26 31
26 13 3 -11 -14 -6 -11 13 8 31 32 44 62 20 47 -7 -4 -8 -3 -4 5 4 6 11 9 16
6 10 -6 50 65 50 89 0 16 21 26 55 26 13 0 26 4 29 9 3 4 -13 5 -37 0 -44 -8
-67 -4 -26 5 13 3 36 7 50 10 26 6 140 -41 153 -63 4 -6 19 -11 34 -11 20 0
23 -3 14 -12 -9 -9 -18 -7 -40 9 -36 27 -108 63 -124 63 -7 0 10 -11 39 -24
28 -14 66 -35 83 -47 l31 -23 34 34 c18 19 37 47 40 63 6 23 4 27 -15 27 -11
0 -18 -4 -15 -10 3 -5 -7 -3 -22 5 -63 32 -147 56 -228 65 l-70 8 70 -3 c39
-1 81 -5 95 -9 14 -4 11 -1 -9 8 -18 9 -55 16 -82 16 -46 0 -49 1 -50 28 l-1
27 -7 -30 -7 -30 -7 40 c-4 22 -7 55 -7 73 0 18 -5 42 -10 53 -7 12 -7 18 -1
17 5 -2 17 6 25 17 13 16 15 16 10 3 -4 -12 0 -20 11 -24 23 -9 121 14 135 32
17 19 45 18 61 -3 11 -15 11 -16 -1 -5 -19 16 -40 15 -60 -3 -10 -9 -46 -22
-81 -30 -35 -7 -54 -14 -41 -14 36 -1 110 20 123 35 15 18 43 18 59 -1 15 -18
34 -20 24 -2 -5 6 36 -28 89 -77 89 -82 113 -107 87 -91 -13 8 -13 -1 1 -26 5
-11 14 -17 19 -14 6 4 7 -1 3 -11 -4 -11 -3 -15 5 -10 6 3 14 1 18 -5 4 -8 3
-9 -4 -5 -14 8 -15 4 -6 -18 3 -9 10 -13 15 -10 5 3 6 -1 3 -9 -2 -7 2 -35 11
-61 28 -81 34 -146 24 -268 -9 -115 -17 -151 -58 -258 -25 -64 -24 -63 -9 -54
7 4 8 3 4 -5 -4 -6 -11 -9 -16 -6 -5 3 -14 -3 -19 -14 -14 -26 -14 -34 1 -25
26 17 -5 -17 -35 -36 l-32 -22 30 27 c18 16 22 23 10 17 -11 -6 -29 -20 -39
-31 -16 -17 -17 -25 -7 -43 11 -23 11 -23 6 2 -5 25 -5 25 6 3 18 -35 51 -28
107 22 27 25 52 45 55 45 2 0 21 -13 42 -30 21 -16 33 -30 28 -30 -6 0 -16 7
-23 16 -33 39 -49 37 -101 -10 -27 -25 -62 -47 -77 -49 l-27 -4 26 -2 c19 -1
42 13 78 45 51 45 52 46 77 29 14 -9 35 -32 46 -51 20 -35 35 -46 24 -19 -8
22 2 18 15 -6 9 -17 8 -20 -1 -14 -10 6 -11 1 -6 -21 26 -117 27 -140 13 -209
-9 -39 -19 -79 -23 -89 -6 -15 -4 -17 7 -11 8 4 11 5 7 1 -3 -4 -8 -6 -11 -4
-6 5 -37 -23 -37 -34 0 -6 8 -4 17 3 10 9 14 9 10 2 -4 -7 -22 -22 -40 -34
-18 -13 -29 -19 -25 -14 4 4 2 15 -5 23 -9 13 -9 14 1 8 7 -4 12 -1 12 9 0 9
-4 14 -9 11 -4 -3 -6 5 -4 17 4 22 -22 97 -33 97 -3 0 -4 -7 0 -15 8 -22 -2
-18 -15 6 -8 15 -8 19 0 15 14 -9 14 9 0 35 -5 11 -14 17 -19 14 -5 -3 -12 0
-16 6 -5 8 -3 9 6 4 8 -5 11 -3 8 6 -3 8 -9 14 -15 14 -6 0 -30 21 -53 48 -23
26 -50 52 -60 57 -21 11 -80 -6 -80 -23 0 -7 -5 -5 -10 3 -6 9 -10 10 -10 3 0
-7 15 -19 34 -28 18 -9 44 -28 57 -43 l24 -27 -25 20 c-54 45 -63 47 -26 7 22
-22 43 -39 46 -37 4 3 14 -3 21 -12 10 -12 10 -14 2 -9 -18 10 -16 -2 6 -38
37 -61 65 -168 65 -246 0 -111 -40 -194 -140 -284 -41 -37 -74 -75 -73 -84 0
-14 2 -14 6 -2 3 8 43 51 88 96 46 44 80 73 75 64 -5 -8 -40 -44 -79 -79 -100
-89 -92 -130 19 -94 42 13 63 27 90 60 19 24 47 58 61 76 28 33 79 148 79 176
0 9 23 35 50 59 28 24 50 48 50 54 0 6 -7 5 -17 -3 -10 -8 -2 5 16 28 36 46
48 46 86 2 11 -12 14 -19 8 -15 -19 11 -16 -9 4 -25 11 -10 14 -10 9 -1 -11
18 -1 15 15 -5 12 -14 12 -16 0 -8 -11 6 -13 4 -7 -11 5 -10 13 -31 18 -46 5
-16 13 -26 16 -24 4 2 8 -6 9 -17 0 -12 8 -47 17 -77 11 -36 14 -70 10 -99 -6
-36 -4 -42 7 -36 12 8 12 6 0 -8 -16 -20 -26 -23 -15 -4 5 8 2 8 -9 -2 -20
-16 -23 -36 -4 -25 8 6 8 3 -1 -9 -8 -9 -17 -15 -21 -14 -3 1 -24 -13 -46 -32
-41 -34 -33 -33 19 3 16 11 26 15 22 8 -11 -19 -124 -81 -202 -112 -66 -26
-76 -28 -142 -20 -45 6 -82 6 -97 0 -14 -5 -25 -6 -25 -2 -1 23 -20 -28 -20
-54 0 -16 -7 -39 -15 -50 -18 -24 -19 -38 -2 -28 7 4 9 3 4 -2 -5 -5 -14 -9
-19 -9 -6 0 -13 -6 -16 -14 -3 -9 0 -11 9 -6 8 5 11 4 6 -1 -5 -5 -14 -9 -19
-9 -6 0 -13 -6 -16 -14 -3 -9 0 -11 8 -6 9 5 11 4 6 -4 -4 -6 -11 -9 -16 -6
-4 3 -17 -11 -29 -31 -24 -41 -26 -48 -8 -38 6 4 -6 -12 -28 -35 -57 -61 -106
-86 -225 -116 -58 -15 -112 -32 -120 -38 -13 -10 -13 -9 0 6 8 9 62 28 120 43
115 29 169 55 215 105 23 24 17 21 -27 -14 -56 -44 -83 -55 -228 -92 -75 -18
-124 -56 -101 -77 11 -11 12 -10 6 2 -8 13 -6 13 8 2 9 -8 15 -19 14 -25 -1
-9 25 -12 88 -12 81 1 96 4 156 33 66 33 169 115 169 134 0 6 -7 5 -17 -3 -16
-13 -17 -12 -4 4 8 9 16 15 19 12 7 -7 32 15 32 27 0 6 -8 4 -17 -3 -16 -13
-17 -12 -5 3 8 10 19 16 24 15 6 -1 13 4 16 12 3 8 0 11 -7 7 -17 -11 -13 0 6
15 15 12 16 12 8 -1 -8 -13 -7 -13 8 -1 20 16 23 36 5 25 -8 -4 -10 -3 -5 2 5
5 10 7 11 4 4 -8 36 21 36 32 0 6 -8 4 -17 -3 -15 -11 -15 -10 1 8 21 25 36
22 36 -7 0 -31 31 -103 53 -125 14 -13 16 -14 8 -2 -19 24 -8 21 15 -5 10 -12
13 -18 7 -14 -9 5 -13 1 -13 -11 -1 -16 -14 -55 -35 -107 -7 -15 -5 -17 6 -11
8 5 11 5 6 -1 -5 -5 -14 -9 -19 -9 -6 0 -13 -6 -16 -14 -3 -8 0 -11 7 -7 20
13 12 0 -21 -30 -17 -16 -28 -23 -24 -16 10 16 0 15 -29 -4 -13 -9 -64 -29
-112 -45 -49 -15 -81 -28 -72 -29 17 0 142 41 180 60 23 10 23 10 5 -4 -10 -8
-55 -27 -100 -41 -45 -14 -89 -31 -100 -36 -14 -8 -16 -8 -10 3 6 10 4 10 -9
-1 -9 -7 -17 -23 -16 -35 0 -20 1 -21 9 -1 7 17 9 17 9 3 1 -10 7 -18 14 -18
7 0 8 -3 2 -8 -6 -4 -8 -22 -4 -42 l6 -35 3 30 2 30 8 -30 c10 -38 10 -131 0
-170 -5 -18 -6 3 -4 55 l3 85 -9 -77 c-10 -89 -45 -198 -101 -317 -43 -93 -44
-95 -27 -85 7 4 8 3 4 -5 -4 -6 -11 -9 -16 -6 -5 3 -14 -3 -19 -14 -14 -26
-14 -34 1 -25 7 4 8 3 4 -5 -4 -6 -11 -9 -15 -6 -5 2 -19 -7 -32 -21 -33 -35
-93 -69 -161 -90 -32 -10 -56 -19 -54 -22 9 -9 137 41 178 69 l43 30 -35 -31
c-83 -73 -330 -129 -515 -117 -145 10 -271 70 -391 189 -62 61 -74 69 -91 59
-11 -5 -24 -7 -28 -3 -4 4 0 -9 9 -28 l17 -35 -21 25 -21 25 16 -33 c9 -18 20
-30 25 -27 5 3 12 0 16 -6 4 -8 3 -9 -4 -5 -16 10 -15 1 3 -33 26 -50 35 -143
21 -207 -7 -33 -17 -68 -21 -78 -7 -15 -5 -17 6 -11 12 8 12 6 1 -8 -19 -23
-64 -35 -162 -42 -47 -4 -92 -12 -100 -18 -11 -8 -11 -6 1 7 13 14 37 19 105
23 48 2 102 11 119 19 16 8 21 11 10 8 -31 -9 -188 -25 -202 -20 -7 3 -24 -9
-38 -25 -18 -23 -25 -42 -25 -74 0 -24 -9 -64 -20 -90 -23 -55 -24 -59 -7 -49
8 5 8 2 -2 -9 -16 -20 -26 -23 -15 -4 4 6 -10 -4 -33 -24 -63 -56 -188 -95
-323 -101 -45 -1 -45 -1 -7 -5 90 -10 259 35 316 83 16 13 32 24 36 24 4 0 -9
-13 -30 -30 -75 -59 -227 -97 -349 -86 -117 10 -144 21 -216 94 -36 36 -53 55
-37 42 15 -13 27 -19 27 -13 0 13 -45 55 -52 47 -3 -3 -9 0 -14 7 -4 7 -3 10
3 6 7 -4 12 19 16 61 2 37 8 76 13 86 5 14 4 17 -4 12 -21 -13 -13 0 16 25 15
13 24 20 19 15 -4 -5 1 -18 10 -29 10 -11 12 -17 6 -13 -27 15 -12 -21 21 -53
34 -33 69 -38 64 -9 -2 7 2 12 9 11 25 -5 24 38 -1 93 -14 31 -26 61 -26 68 0
16 -82 218 -86 213 -2 -2 9 -37 26 -77 17 -40 28 -75 26 -77 -4 -4 -47 99 -77
185 -10 29 -14 50 -9 47 4 -3 11 -19 15 -36 4 -17 9 -28 12 -25 3 2 -3 29 -13
58 -16 44 -19 81 -18 213 1 88 6 178 12 200 6 22 21 83 35 135 13 52 35 118
49 145 35 69 44 100 27 90 -8 -5 -11 -4 -6 1 5 5 14 9 19 9 6 0 13 6 16 14 3
9 0 11 -9 6 -8 -5 -11 -5 -7 -1 3 4 8 6 11 4 6 -5 37 23 37 34 0 6 -7 5 -17
-2 -10 -7 1 5 25 27 23 21 42 44 42 50 0 6 -12 16 -27 22 l-28 11 28 -5 c36
-7 35 0 -3 13 -21 8 -29 8 -27 0 1 -6 -19 -18 -45 -26 -27 -9 -48 -19 -48 -24
0 -5 5 -6 12 -2 7 4 8 3 4 -5 -6 -9 -11 -9 -23 1 -9 7 -19 11 -22 10 -13 -8
-23 70 -13 106 l11 37 -5 -45 c-2 -25 0 -58 5 -75 9 -26 10 -25 5 15 -5 40 6
93 31 154 7 15 5 17 -6 11 -8 -5 -11 -5 -6 1 5 5 14 9 19 9 6 0 13 6 16 14 3
9 0 11 -9 6 -8 -5 -11 -5 -7 -1 3 4 10 8 15 8 4 -1 16 6 25 15 15 13 22 12 75
-15 32 -16 74 -39 93 -51 19 -11 42 -21 50 -21 15 0 82 -25 183 -67 47 -20 61
-22 70 -13 9 10 9 11 0 6 -7 -4 -39 4 -70 17 -101 43 -168 67 -183 67 -8 0
-31 10 -50 21 -79 48 -152 81 -168 74 -13 -5 -14 -4 -5 6 14 14 48 2 133 -47
30 -17 66 -35 80 -39 34 -9 122 -42 192 -71 44 -19 62 -22 82 -14 14 5 26 13
26 18 0 36 -88 93 -210 136 -102 37 -195 88 -260 142 l-55 46 51 -49 c57 -55
153 -109 264 -149 76 -27 175 -77 186 -95 3 -5 -17 4 -45 21 -27 17 -87 45
-133 61 -127 46 -217 98 -283 162 -33 32 -54 55 -46 51 9 -4 12 -2 9 7 -3 8
-10 14 -16 14 -5 0 -14 4 -19 9 -5 5 -2 6 6 1 9 -5 12 -3 9 6 -3 8 -10 14 -16
14 -5 0 -14 4 -19 9 -5 5 -3 6 5 2 16 -9 15 1 -4 59 -15 41 -16 85 -11 334 4
215 9 300 21 341 8 30 19 66 22 79 6 19 4 22 -7 16 -8 -5 -11 -4 -6 1 5 5 14
9 20 9 6 0 25 38 42 85 17 47 39 99 48 117 19 36 22 57 7 48 -16 -10 -11 1 7
16 14 12 16 12 9 -1 -4 -8 2 -4 13 9 23 25 28 47 9 35 -7 -4 -8 -3 -4 5 4 6
11 9 16 6 5 -3 14 3 19 14 14 26 14 34 -1 25 -7 -4 -8 -3 -4 5 4 6 11 9 16 6
12 -8 42 52 37 73 -3 12 -5 11 -6 -5 0 -12 -5 -24 -10 -27 -4 -3 -6 6 -3 19 7
37 -26 32 -75 -10 -31 -26 -43 -32 -51 -22 -6 6 -10 16 -10 22 0 5 -6 11 -13
14 -7 2 -9 -1 -5 -8 12 -18 0 -12 -20 11 -10 12 -13 18 -6 14 15 -9 15 -1 1
25 -5 11 -14 17 -19 14 -5 -3 -12 0 -16 6 -4 8 -3 9 4 5 16 -9 16 -10 -11 54
-20 51 -22 70 -21 240 0 145 4 195 17 233 20 57 21 71 5 61 -8 -4 -10 -3 -5 2
5 5 14 9 20 9 28 0 36 172 12 242 -8 23 -12 50 -8 59 5 13 3 15 -8 9 -8 -5 -3
4 11 19 26 29 167 102 255 132 114 38 253 28 410 -32 66 -25 157 -35 173 -19
12 12 -46 54 -91 65 -23 6 -58 17 -77 25 -54 21 -166 43 -255 50 -101 8 -199
-19 -346 -95 -22 -11 -66 -1 -81 19 -11 14 -11 14 2 5 23 -17 60 -24 79 -14
98 51 205 88 285 100 44 7 46 8 15 9 -57 2 -193 -43 -301 -100 -19 -10 -62 2
-73 21 -3 5 -10 8 -15 5 -4 -3 -14 3 -21 13 -13 15 -12 16 4 3 9 -7 17 -9 17
-3 0 13 -25 33 -32 26 -3 -3 -9 0 -14 7 -4 8 -3 10 4 5 17 -10 15 -1 -9 46
-21 42 -23 116 -4 162 6 15 5 17 -5 11 -9 -5 -11 -4 -6 4 4 6 11 9 16 6 5 -3
14 3 19 14 14 26 14 34 -1 25 -8 -4 -10 -3 -5 2 5 5 14 9 19 9 6 0 13 6 16 14
3 9 0 11 -9 5 -12 -7 -12 -5 0 9 15 18 26 23 16 7 -3 -5 -4 -10 0 -10 7 0 45
62 45 73 0 5 -6 5 -12 1 -9 -5 -9 -3 1 9 7 9 17 15 21 12 3 -2 24 15 46 38 28
30 31 35 9 17 l-30 -25 29 33 c30 32 43 42 30 21 -9 -15 -1 -11 70 31 87 52
127 90 131 125 3 29 -9 55 -25 55 -4 0 -25 -11 -46 -25 l-39 -26 40 37 c38 35
38 35 5 12 -19 -14 -74 -53 -122 -87 -48 -33 -90 -67 -94 -73 -5 -7 5 -2 21
10 56 43 145 103 145 98 0 -3 -21 -20 -47 -37 -27 -18 -70 -51 -98 -73 -27
-23 -44 -33 -37 -24 8 10 9 19 3 22 -5 3 -11 1 -13 -6 -3 -7 -7 -5 -11 6 -4
10 -3 15 3 11 12 -8 12 33 -1 60 -7 15 -8 12 -4 -15 l5 -35 -16 40 c-17 44
-14 159 6 228 17 59 20 39 4 -28 -7 -33 -13 -85 -12 -115 1 -52 1 -51 8 20 7
68 21 134 37 177 5 12 3 14 -8 8 -12 -8 -12 -6 0 8 16 20 26 23 15 5 -5 -9 -2
-9 9 1 20 16 23 36 5 25 -7 -4 -5 2 5 13 9 11 39 32 66 46 113 62 233 70 334
24z m2280 -3616 c9 -12 9 -13 0 -7 -18 10 -16 3 8 -38 12 -20 25 -34 29 -31 5
3 12 0 16 -6 5 -8 3 -9 -6 -4 -13 8 -8 -26 15 -100 21 -66 25 -151 10 -208
-27 -98 -28 -104 -15 -87 10 13 11 13 7 0 -2 -8 -10 -15 -17 -15 -7 0 -15 -6
-18 -14 -3 -9 0 -11 9 -6 8 5 11 4 6 -1 -5 -5 -14 -9 -20 -9 -5 0 -12 -6 -15
-14 -3 -9 0 -11 9 -6 8 5 11 4 6 -1 -5 -5 -10 -7 -11 -4 -4 8 -36 -21 -36 -32
0 -6 7 -5 18 2 9 7 -12 -15 -47 -48 -36 -34 -78 -66 -95 -72 -71 -26 -81 -34
-87 -75 l-6 -40 -2 36 c-1 42 20 65 72 80 31 8 147 91 147 105 0 3 -25 -15
-56 -40 -30 -25 -72 -50 -93 -56 -20 -5 -48 -21 -61 -35 -23 -25 -24 -28 -12
-95 23 -132 14 -181 -41 -238 -36 -37 -81 -52 -187 -62 l-75 -7 60 -1 c52 -2
101 7 180 32 11 4 2 -3 -20 -13 -39 -19 -88 -28 -189 -34 -34 -1 -51 -7 -53
-17 -4 -13 -3 -13 6 0 6 8 11 10 11 4 0 -6 15 -19 33 -29 28 -15 49 -17 128
-12 52 3 113 12 136 20 32 12 44 13 49 4 4 -7 4 -9 -1 -5 -4 4 -24 0 -44 -8
-20 -9 -80 -18 -138 -21 -85 -5 -107 -3 -130 11 l-28 17 24 -20 c19 -17 36
-21 100 -21 68 1 97 5 182 25 24 6 26 4 38 -52 7 -32 15 -62 17 -68 6 -15 -3
67 -10 90 -4 11 0 6 8 -11 20 -42 30 -152 18 -184 -8 -20 -9 -12 -7 35 l4 60
-8 -50 c-15 -84 -38 -159 -65 -214 -15 -28 -24 -57 -20 -63 4 -7 3 -8 -4 -4
-13 8 -46 -50 -37 -65 4 -5 1 -8 -6 -7 -6 2 -14 -3 -17 -11 -3 -10 0 -11 9 -5
12 7 12 5 0 -9 -16 -20 -26 -23 -15 -4 5 8 2 8 -9 -2 -18 -14 -24 -36 -7 -26
16 10 11 -1 -7 -16 -15 -12 -16 -12 -8 1 5 9 0 8 -13 -4 -26 -23 -30 -44 -4
-26 9 7 0 -3 -20 -22 -58 -54 -137 -88 -242 -106 -81 -14 -109 -14 -193 -4
-84 11 -108 18 -168 53 -38 22 -88 56 -110 75 -39 34 -39 34 15 -4 105 -75
159 -100 250 -112 85 -12 192 -7 246 10 l29 10 -30 -4 c-108 -16 -162 -17
-241 -6 -114 15 -189 55 -301 162 -56 54 -89 78 -105 77 -20 -1 -19 -2 7 -10
17 -4 46 -25 65 -46 l35 -37 -43 37 c-48 42 -79 47 -92 15 -8 -20 -9 -21 -9
-4 -1 11 -4 17 -7 13 -9 -9 16 -77 28 -77 6 0 5 6 -2 15 -7 9 -11 17 -9 19 2
1 20 -16 39 -38 25 -30 27 -35 7 -17 -15 14 -27 20 -27 14 0 -6 46 -52 103
-104 87 -80 102 -98 101 -124 0 -16 -4 -39 -9 -49 -6 -15 -5 -17 5 -11 9 5 11
4 6 -4 -4 -6 -11 -9 -16 -6 -4 3 -14 -2 -21 -11 -27 -33 -74 -47 -174 -52 -95
-4 -136 -14 -134 -30 1 -4 1 -16 -1 -27 l-1 -20 -9 20 c-8 19 -9 19 -9 -2 -1
-27 38 -56 102 -73 58 -16 183 -7 207 15 9 8 23 15 31 15 17 0 111 94 128 127
13 25 14 36 4 30 -5 -3 -6 16 -3 41 l4 47 7 -40 c6 -40 6 -40 8 -6 1 31 3 33
29 27 15 -4 58 -9 95 -13 67 -6 68 -6 63 -32 -3 -14 -8 -44 -12 -66 -4 -22
-20 -69 -35 -104 -33 -72 -33 -75 -17 -65 7 4 8 3 4 -5 -4 -6 -11 -9 -16 -6
-5 3 -16 -8 -25 -24 -18 -36 -19 -44 -2 -35 6 4 -6 -11 -27 -34 -43 -45 -165
-103 -257 -123 -107 -23 -307 4 -477 65 -46 17 -132 72 -132 85 0 5 14 14 31
22 18 7 46 24 63 38 18 15 25 18 16 7 -8 -11 -34 -31 -58 -46 l-44 -27 49 -31
c75 -48 275 -102 403 -109 58 -3 120 -1 137 3 23 6 -7 9 -105 10 -127 1 -146
4 -262 38 -69 20 -143 49 -165 63 -36 24 -38 27 -20 37 30 18 95 77 95 88 0 5
-4 6 -10 3 -16 -10 -11 1 7 16 15 12 16 12 8 -1 -8 -13 -7 -13 8 -1 19 15 23
36 5 25 -7 -4 -8 -3 -4 5 4 6 11 9 16 6 12 -7 24 19 39 80 7 28 16 67 22 88
l10 37 79 0 c43 0 81 3 83 8 3 4 -37 5 -88 2 -51 -3 -91 -2 -88 3 2 4 37 7 77
7 84 0 136 8 136 22 0 5 -5 6 -12 2 -7 -4 -8 -3 -4 5 4 6 11 9 16 6 9 -6 44
44 36 53 -3 3 -6 -1 -6 -9 -1 -11 -3 -10 -10 2 -8 13 -22 15 -78 11 -94 -6
-171 17 -245 75 -32 25 -70 49 -85 53 -22 7 -23 8 -6 9 12 1 50 -21 85 -48 38
-29 86 -56 118 -65 57 -17 152 -20 186 -7 11 5 -11 6 -51 3 -98 -6 -172 16
-253 79 -64 49 -105 61 -106 29 -1 -8 -6 -14 -13 -12 -25 5 -23 -29 3 -73 14
-25 30 -43 35 -40 5 3 12 0 16 -6 4 -8 3 -9 -4 -5 -17 10 -15 -7 4 -30 8 -10
12 -12 8 -4 -7 13 -5 13 9 1 19 -15 23 -26 5 -15 -8 5 -9 2 -3 -12 10 -25 6
-163 -6 -185 -12 -23 -11 -32 1 -24 18 11 11 -1 -12 -21 -22 -19 -23 -19 -8 1
14 20 14 20 -7 1 -13 -10 -20 -22 -18 -26 3 -4 -21 -23 -53 -42 l-58 -35 -41
36 c-39 35 -40 38 -28 66 15 34 19 29 7 -7 -7 -19 -3 -28 27 -53 l36 -29 -28
30 c-26 29 -27 33 -16 75 6 24 14 74 16 110 4 60 2 69 -21 95 l-26 29 -24 -27
c-21 -24 -42 -91 -71 -228 -14 -67 16 27 36 111 11 50 23 88 25 86 5 -4 -32
-165 -46 -203 -5 -13 -15 -23 -21 -22 -6 2 -14 -3 -17 -11 -3 -9 0 -11 9 -6 8
5 11 4 6 -1 -5 -5 -14 -9 -20 -9 -5 0 -12 -6 -15 -14 -3 -9 0 -11 9 -7 8 4 -5
-10 -28 -32 -24 -22 -69 -49 -101 -61 -83 -31 -122 -57 -122 -81 0 -49 145
-17 270 60 34 22 35 22 10 1 -47 -40 -167 -91 -219 -93 -28 -1 -45 -5 -39 -9
18 -12 91 3 153 31 67 31 145 85 145 101 0 5 -6 7 -12 3 -7 -4 -6 1 3 10 15
17 20 16 75 -15 33 -19 91 -58 129 -88 39 -29 81 -59 95 -65 25 -11 24 -13
-90 -121 -63 -60 -109 -102 -101 -92 21 27 -3 20 -30 -9 -31 -33 -63 -50 -163
-84 -126 -43 -200 -53 -288 -41 -75 10 -160 40 -173 60 -3 6 -10 9 -15 6 -5
-3 -12 0 -16 6 -4 8 -3 9 4 5 15 -9 15 -6 -4 40 -20 48 -42 74 -63 73 -10 0
-8 -3 7 -9 30 -12 28 -18 -4 -12 -16 3 -30 -1 -35 -9 -15 -23 -10 -34 6 -13
13 17 13 14 1 -23 -8 -22 -11 -45 -8 -49 4 -4 -8 3 -25 15 -38 26 -45 39 -8
15 23 -15 25 -15 25 0 0 9 -6 13 -13 10 -8 -3 -20 2 -27 11 -14 16 -35 21 -25
5 12 -20 -2 -9 -36 27 -18 20 -28 32 -20 28 9 -5 12 -3 9 6 -3 8 -10 14 -15
14 -6 0 -15 4 -20 9 -5 5 -3 6 5 2 15 -9 15 -11 -3 48 -19 63 -19 127 0 196 9
30 18 72 22 93 3 20 7 37 9 37 2 0 29 -18 60 -40 32 -22 61 -40 66 -40 5 0
-23 22 -64 49 l-73 50 -5 -44 c-8 -61 -18 -67 -13 -8 3 26 5 53 5 60 1 6 29
-8 62 -32 72 -51 187 -99 216 -90 15 5 19 14 17 37 -2 28 -12 37 -110 93 -109
62 -197 136 -197 165 0 13 -2 13 -11 0 -9 -13 -10 -13 -6 0 5 18 13 17 92 -4
33 -9 92 -19 130 -21 39 -2 57 -2 40 1 -154 21 -266 51 -281 75 -3 6 8 4 24
-5 17 -9 70 -25 118 -36 80 -19 100 -20 225 -10 76 5 146 13 156 16 39 13 90
41 133 73 l45 33 -40 -36 c-72 -65 -156 -93 -295 -98 l-55 -2 49 -3 c66 -6
173 12 220 36 46 24 136 98 136 112 0 6 -4 7 -10 4 -18 -11 -11 1 12 21 22 19
23 19 8 -1 -15 -20 -14 -20 8 -1 23 20 31 43 10 30 -7 -4 -8 -3 -4 5 4 6 11 9
16 6 10 -6 30 26 30 50 0 9 -4 13 -10 10 -16 -10 -11 1 7 16 14 12 16 12 9 -1
-4 -8 0 -6 8 4 9 11 16 25 16 30 0 7 30 11 77 12 l76 1 52 54 c64 67 97 146
101 243 2 37 5 70 7 72 2 2 27 -12 57 -31 91 -59 135 -67 316 -62 276 8 424
46 529 136 l30 26 -25 -28 c-34 -39 -103 -76 -190 -103 -41 -12 -69 -23 -62
-23 27 -2 128 32 172 57 47 26 120 90 120 105 0 4 -6 5 -12 1 -9 -5 -9 -2 1 9
16 20 26 23 15 5 -5 -9 -2 -9 9 1 19 15 23 36 5 25 -7 -4 -8 -3 -4 5 4 6 11 9
16 6 5 -3 18 12 30 34 23 47 25 55 8 45 -8 -4 -10 -3 -5 2 5 5 14 9 20 9 7 0
12 11 13 25 1 30 24 103 30 97 2 -2 -2 -23 -11 -46 -8 -23 -10 -39 -5 -36 6 3
10 12 10 18 0 7 20 55 43 108 59 129 69 170 65 264 l-4 80 -2 -90 c-3 -132
-17 -132 -17 0 0 62 3 108 7 102 5 -8 8 -8 8 -1 0 6 35 28 77 49 71 35 183
125 183 147 0 5 -5 6 -12 2 -7 -4 -8 -3 -4 5 4 6 12 9 17 6 9 -6 59 96 59 120
0 9 24 16 77 20 70 7 80 11 117 45 39 36 39 38 30 81 -6 28 -14 44 -24 44 -8
0 -16 6 -16 13 -1 6 -2 14 -3 17 0 3 -20 -5 -43 -17 -24 -12 -63 -25 -88 -29
l-45 -6 38 -2 c23 0 57 9 87 24 28 14 50 23 50 20 0 -2 -23 -16 -51 -30 -55
-29 -124 -32 -124 -6 0 8 -6 16 -14 19 -8 3 -11 0 -7 -7 11 -17 0 -13 -15 6
-12 14 -12 15 0 9 21 -13 3 35 -22 59 -14 13 -16 14 -8 3 19 -25 8 -22 -15 4
-10 12 -13 18 -6 14 17 -10 15 9 -3 24 -27 22 -16 30 43 31 31 0 88 11 127 24
79 26 111 27 128 6z"/>
<path d="M4887 6044 c40 -21 71 -39 69 -41 -2 -2 -31 10 -64 28 -60 31 -88 32
-78 0 5 -12 2 -11 -9 3 -8 11 -15 15 -15 9 0 -17 47 -70 83 -94 27 -18 26 -15
-8 16 l-40 37 42 -32 c39 -29 72 -63 45 -46 -15 9 -15 6 2 -35 27 -65 39 -152
27 -196 -17 -63 -38 -81 -139 -118 l-94 -35 -55 45 c-30 25 -60 45 -66 45 -7
0 2 -8 18 -18 17 -11 37 -27 45 -38 8 -10 0 -7 -18 8 -75 62 -113 -1 -45 -75
20 -23 41 -42 44 -42 4 0 11 -4 16 -9 5 -5 2 -6 -6 -1 -10 6 -12 2 -6 -16 18
-60 60 -142 83 -159 23 -19 48 -19 37 0 -3 4 4 10 15 13 16 4 20 13 19 49 -1
23 -5 54 -9 68 -5 16 -7 -1 -4 -45 l3 -70 -9 60 c-6 33 -12 65 -14 71 -2 6 13
11 38 13 76 4 216 72 216 105 0 6 -15 -4 -32 -21 -43 -42 -130 -73 -193 -71
l-50 1 60 7 c76 9 142 33 176 66 24 23 34 25 132 27 l107 2 35 35 c26 26 37
47 40 75 l5 40 -10 -41 c-6 -23 -24 -54 -41 -70 -28 -27 -37 -29 -121 -33 -49
-1 -94 1 -98 5 -5 5 36 9 90 9 93 0 101 2 125 26 14 14 28 42 32 62 7 43 -3
46 -64 23 -21 -8 -65 -16 -98 -19 -33 -2 -53 -2 -45 0 13 3 14 20 10 106 -6
98 -21 154 -40 142 -5 -3 -12 0 -16 6 -4 8 -3 9 4 5 23 -14 12 13 -18 48 -31
35 -115 87 -160 100 -14 4 8 -10 47 -30z"/>
<path d="M4146 5631 c-4 -5 2 -7 13 -4 12 3 31 -7 52 -27 l34 -32 -33 26 c-19
14 -37 26 -42 26 -21 0 -40 -14 -41 -29 0 -12 -2 -12 -9 4 -8 18 -9 18 -9 2
-1 -25 28 -79 39 -72 5 3 12 0 16 -6 5 -8 3 -9 -6 -4 -10 6 -11 4 -5 -11 23
-57 21 -61 -39 -66 -31 -3 -62 -10 -69 -17 -9 -10 -6 -10 16 -2 16 6 54 10 85
10 l57 -2 -70 -7 c-78 -8 -105 -17 -105 -34 0 -6 -5 -4 -10 4 -8 12 -10 11
-10 -7 0 -13 5 -22 12 -20 7 1 12 -5 13 -13 0 -12 20 -15 111 -16 61 -1 133
-4 160 -7 41 -5 44 -5 19 4 -16 5 -88 10 -160 11 -110 2 -120 3 -65 9 75 8
216 -3 281 -22 48 -14 97 -43 144 -84 l30 -27 -30 21 c-75 53 -103 69 -135 74
l-35 6 35 -12 c54 -19 81 -36 129 -81 24 -22 40 -34 36 -26 -8 13 -7 13 8 1
19 -15 23 -26 6 -15 -7 4 -10 1 -7 -7 3 -8 10 -14 16 -14 5 0 14 -4 19 -9 5
-5 2 -6 -6 -1 -9 5 -12 3 -9 -6 3 -8 10 -13 16 -12 7 2 9 -4 5 -14 -4 -11 -3
-14 5 -9 8 4 10 2 6 -8 -7 -18 44 -108 57 -100 5 3 6 -3 2 -12 -4 -11 -3 -15
5 -10 6 3 14 1 18 -5 4 -8 3 -9 -4 -5 -19 12 -14 -30 5 -45 11 -10 14 -10 9
-1 -11 18 -1 15 15 -5 10 -11 10 -14 2 -9 -19 11 -16 -9 4 -25 11 -10 14 -10
9 -1 -11 18 -1 15 15 -5 10 -11 10 -14 2 -9 -8 4 -13 2 -13 -6 0 -7 26 -37 58
-68 59 -57 102 -118 102 -148 0 -15 2 -15 11 -2 9 12 10 12 5 -3 -3 -10 -6
-26 -7 -35 0 -14 -2 -13 -9 3 -5 12 -6 -2 -3 -36 4 -43 1 -66 -16 -104 -25
-56 -25 -59 -8 -49 6 4 3 -2 -7 -14 -23 -26 -34 -30 -15 -4 13 16 12 16 -4 3
-46 -36 -56 -104 -19 -133 13 -11 14 -11 7 2 -5 9 0 8 13 -4 25 -21 31 -36 7
-16 -19 16 -19 11 1 -29 14 -29 16 -49 11 -125 -1 -13 -6 -24 -11 -23 -5 1
-11 -4 -14 -12 -3 -9 0 -11 9 -6 8 5 3 -3 -9 -18 -37 -40 -117 -70 -202 -75
-64 -4 -78 -2 -90 14 -9 11 -10 15 -2 10 19 -11 14 9 -9 35 -11 13 -18 18 -14
12 9 -18 0 -16 -16 4 -10 11 -10 14 -1 9 6 -4 12 -2 12 4 0 10 -89 71 -121 82
-9 4 -22 3 -28 -2 -9 -5 -5 -8 11 -7 21 0 135 -62 115 -63 -4 0 -25 11 -47 25
-64 40 -126 25 -89 -23 13 -15 12 -16 -3 -3 -10 7 -18 21 -19 30 0 10 -2 11
-6 4 -7 -18 29 -65 74 -97 l38 -27 -40 37 c-22 20 -31 32 -20 26 11 -6 34 -25
50 -43 17 -18 24 -28 16 -24 -11 6 -13 4 -7 -11 28 -68 37 -108 34 -150 -3
-47 -4 -49 -38 -55 -48 -7 -78 -24 -127 -72 -39 -37 -58 -67 -33 -52 6 4 7 -1
3 -11 -4 -10 -8 -13 -10 -7 -3 7 -10 10 -17 7 -6 -2 -29 3 -50 11 -21 9 -40
14 -42 12 -3 -2 17 -12 43 -22 27 -10 52 -22 58 -27 5 -5 -20 2 -58 17 -125
47 -228 31 -317 -49 l-35 -31 30 33 c48 53 100 76 190 83 l80 6 -73 1 c-60 2
-81 -2 -122 -23 -83 -42 -135 -108 -141 -180 -3 -30 0 -40 11 -40 8 0 15 -7
15 -15 0 -8 6 -15 14 -15 16 0 80 46 81 59 0 4 -16 -6 -35 -23 -20 -17 -41
-31 -48 -31 -7 0 -3 6 8 12 11 6 35 25 54 42 19 17 31 25 27 19 -4 -7 -3 -13
2 -13 5 0 14 11 20 25 15 33 15 38 0 30 -7 -4 1 7 18 23 61 57 153 51 239 -15
48 -36 48 -36 78 -19 24 13 27 14 18 2 -25 -30 -49 -28 -97 8 -55 43 -110 59
-162 50 -43 -8 -76 -23 -68 -31 3 -3 11 -1 18 4 22 18 86 24 126 13 22 -5 60
-26 85 -45 25 -19 51 -35 57 -35 6 0 31 19 56 42 35 32 44 47 40 64 -4 13 0
27 9 34 8 7 15 10 15 7 0 -4 16 5 36 18 20 14 47 25 59 25 44 0 151 -40 175
-65 13 -14 28 -25 34 -25 28 1 -66 62 -123 80 -79 25 -98 25 -139 0 -18 -11
-36 -20 -40 -20 -17 1 75 50 94 50 12 0 51 -9 86 -20 47 -14 77 -32 114 -67
28 -26 42 -42 32 -34 -10 8 -18 10 -18 4 0 -16 36 -44 45 -36 4 5 5 3 1 -4 -8
-14 20 -74 40 -86 8 -4 14 -13 14 -20 0 -8 -4 -6 -11 3 -9 12 -9 11 -4 -5 4
-11 11 -33 15 -50 3 -16 12 -29 18 -28 7 2 10 -7 7 -25 -2 -15 -6 -54 -9 -87
-6 -59 -24 -140 -31 -133 -2 2 3 30 11 63 7 33 13 85 12 115 -1 50 -1 47 -9
-25 -4 -44 -14 -100 -23 -125 -19 -54 -20 -63 -4 -54 7 4 8 3 4 -5 -4 -6 -11
-9 -16 -6 -11 7 -43 -52 -36 -68 2 -7 5 -4 5 5 1 9 5 19 10 22 5 4 7 -3 4 -14
-3 -13 0 -20 8 -20 12 0 12 -2 1 -9 -10 -6 -5 -11 18 -19 27 -10 36 -8 60 9
15 12 33 33 40 48 18 40 40 129 39 159 -1 16 -5 7 -10 -22 -4 -27 -12 -53 -17
-58 -6 -6 -6 5 -1 29 5 21 12 61 16 88 6 46 7 48 13 20 l7 -30 4 30 c4 29 7
31 77 45 66 13 78 12 138 -4 37 -9 68 -15 70 -13 2 2 -26 12 -63 22 -68 19
-84 18 -223 -10 -14 -3 -5 2 20 10 77 26 140 29 210 10 78 -22 151 -57 170
-82 14 -17 14 -17 -5 -2 -26 22 -86 52 -91 46 -3 -2 9 -10 26 -17 17 -7 50
-28 73 -46 50 -40 66 -42 95 -11 28 30 65 115 58 133 -4 10 -2 12 6 8 8 -5 9
-2 5 10 -4 9 -3 15 2 12 4 -3 19 6 32 21 32 34 95 62 144 64 22 0 56 7 75 15
20 8 24 12 10 9 -14 -3 -52 -10 -86 -14 -65 -9 -89 -19 -144 -59 -30 -22 -32
-22 -16 -4 27 31 114 72 154 72 45 0 112 20 112 34 0 6 5 4 10 -4 8 -13 10
-13 10 2 0 38 -178 37 -268 -2 -33 -14 -68 -40 -93 -69 -23 -25 -46 -46 -52
-46 -6 0 -17 -15 -24 -32 -10 -24 -10 -33 -1 -33 6 0 9 -3 6 -6 -4 -3 -20 2
-38 11 -96 50 -279 84 -349 65 -24 -6 -45 -9 -48 -7 -2 3 20 11 50 18 47 10
70 9 146 -5 49 -9 98 -19 108 -22 15 -5 15 -4 3 5 -9 5 -56 17 -105 26 -82 16
-123 15 -182 -1 -19 -5 -23 -2 -23 17 0 13 -9 40 -19 59 -11 19 -26 49 -34 66
-8 17 -21 35 -28 39 -8 6 -10 4 -4 -6 8 -12 6 -12 -8 0 -18 15 -23 26 -7 16
17 -10 11 12 -7 26 -15 12 -16 12 -8 -1 8 -13 7 -13 -8 -1 -18 15 -23 26 -7
16 6 -3 10 -1 10 4 0 25 -168 141 -205 141 -12 0 -15 13 -15 65 l0 65 53 0
c92 0 226 48 252 90 3 5 -14 -3 -38 -20 -73 -49 -233 -78 -277 -50 -9 6 4 7
40 3 94 -9 205 24 269 81 13 11 21 15 16 7 -5 -9 -3 -12 6 -9 8 3 13 11 11 17
-1 7 1 10 6 7 16 -9 53 40 68 89 8 27 14 72 14 102 0 55 -23 118 -40 108 -5
-3 -12 0 -16 6 -4 8 -3 9 4 5 21 -13 13 10 -10 30 -22 19 -23 19 -8 -1 15 -20
14 -20 -8 -1 l-22 19 22 24 c28 29 37 30 12 1 -17 -20 -17 -21 -1 -9 17 13 47
62 47 76 0 3 -6 3 -12 -1 -8 -4 -10 -3 -5 2 5 5 13 9 19 9 16 0 38 82 38 140
l0 51 111 13 c131 15 182 31 232 72 36 30 54 65 20 38 -16 -13 -17 -12 -5 3 8
10 19 16 24 15 6 -1 13 4 16 12 2 8 0 11 -6 7 -6 -4 -8 1 -5 13 3 10 0 28 -6
40 -7 12 -9 21 -6 21 3 0 12 -15 20 -32 8 -18 14 -26 15 -18 0 24 -38 80 -55
80 -10 0 -13 5 -9 13 4 6 -19 -13 -52 -44 -48 -45 -73 -60 -132 -79 -41 -13
-93 -24 -117 -24 -28 -1 -38 -4 -29 -9 29 -17 191 30 258 74 l31 21 -30 -26
c-32 -28 -145 -71 -210 -81 -56 -8 -162 45 -230 116 -27 28 -44 49 -37 45 19
-11 14 9 -9 35 -11 13 -18 18 -14 12 9 -18 0 -16 -16 4 -12 14 -12 16 0 9 9
-6 12 -4 9 5 -3 8 -10 14 -15 14 -6 0 -15 4 -20 9 -5 5 -2 6 6 1 16 -9 15 -8
-22 63 -17 32 -32 50 -39 46 -7 -4 -8 -3 -4 4 9 14 -22 75 -34 67 -5 -3 -12 0
-16 6 -5 8 -3 9 6 4 8 -5 11 -3 8 6 -3 8 -10 14 -15 14 -6 0 -15 4 -20 9 -5 5
-2 6 6 1 9 -5 12 -3 9 6 -3 8 -10 14 -16 14 -6 0 -17 7 -24 15 -11 12 -11 12
5 1 25 -20 21 2 -6 27 -13 12 -27 19 -31 15 -4 -5 -6 -3 -4 3 4 15 -75 75
-127 96 -22 9 -61 20 -87 23 -39 5 -48 10 -48 26 0 27 -29 81 -40 74 -5 -3
-12 0 -16 6 -4 8 -3 9 4 5 28 -17 8 20 -32 60 -42 42 -69 54 -80 35z"/>
<path d="M4179 5070 c41 -9 114 -51 128 -74 4 -5 -14 5 -39 23 -26 19 -63 35
-87 38 -38 5 -43 3 -48 -18 -6 -21 -7 -22 -14 -3 -6 15 -8 16 -8 2 -1 -11 20
-26 59 -45 32 -15 62 -34 64 -40 3 -7 -11 -2 -32 10 -57 36 -62 39 -62 33 0
-2 17 -15 37 -27 37 -23 95 -82 124 -126 10 -15 19 -20 22 -14 3 7 4 7 3 -1
-2 -7 -9 -13 -16 -13 -7 0 -15 -6 -18 -14 -3 -9 0 -11 8 -6 9 5 11 4 6 -4 -4
-6 -12 -9 -17 -5 -5 3 -23 -23 -39 -58 -27 -57 -29 -74 -31 -183 -2 -77 2
-128 9 -142 7 -12 12 -24 12 -26 0 -2 -26 -7 -57 -11 -77 -9 -132 -39 -209
-111 -47 -45 -64 -67 -63 -85 1 -21 2 -22 6 -5 9 36 18 35 18 -3 0 -53 21 -52
98 7 129 99 168 108 372 89 l70 -7 -65 11 c-36 6 -101 12 -145 12 -92 1 -124
-12 -231 -94 -36 -28 -73 -50 -82 -50 -9 0 0 8 20 18 19 10 55 35 79 54 81 66
125 83 214 83 44 -1 103 -5 132 -9 28 -5 60 -5 70 -1 10 5 21 8 25 7 4 -1 5 5
1 14 -5 13 -7 13 -14 2 -7 -10 -9 -9 -9 4 0 11 -12 18 -42 23 -24 4 -50 11
-58 17 -12 7 -11 8 5 4 11 -2 36 -7 55 -10 26 -4 30 -4 15 3 -11 5 -29 10 -40
10 -17 1 -26 17 -48 89 -27 85 -27 89 -13 168 7 44 21 95 30 112 19 36 20 46
5 36 -6 -3 -3 5 6 19 13 21 22 25 44 21 15 -3 51 -1 81 6 30 6 61 11 68 12 13
1 20 22 24 73 3 33 14 31 -108 25 -41 -2 -63 3 -103 25 -28 16 -56 34 -62 42
-6 7 15 -3 47 -22 48 -29 67 -35 113 -34 31 0 65 4 76 8 11 5 -13 6 -55 4 -82
-5 -93 0 -235 100 -37 27 -67 40 -97 43 l-43 3 44 -9z"/>
<path d="M4516 2971 c-4 -5 3 -7 13 -4 11 3 28 0 38 -7 16 -10 16 -10 -4 -5
-13 4 -32 3 -44 0 -17 -6 -20 -13 -17 -45 2 -21 0 -36 -4 -34 -5 3 -9 20 -9
37 -2 30 -2 30 -6 5 -5 -30 13 -72 27 -63 5 3 12 0 16 -6 5 -8 3 -9 -6 -4 -10
6 -12 1 -7 -22 6 -28 -2 -77 -19 -117 -5 -15 -4 -17 6 -11 8 5 11 4 7 -2 -5
-7 -43 -9 -107 -6 -97 5 -102 4 -135 -21 -33 -25 -50 -56 -22 -40 6 4 4 -2 -6
-13 -11 -13 -50 -29 -105 -43 -48 -12 -93 -27 -102 -33 -13 -10 -13 -10 -2 4
7 10 53 27 102 39 50 12 92 25 95 29 9 16 -181 -42 -202 -61 -21 -20 -21 -49
0 -45 6 1 11 -5 12 -13 1 -36 135 -14 260 44 75 35 79 35 140 4 37 -19 52 -20
218 -14 192 6 223 14 289 66 20 17 41 30 45 30 13 0 83 60 83 71 0 6 -6 7 -12
3 -8 -4 -10 -3 -5 2 5 5 14 9 20 9 7 0 13 19 13 50 l2 50 -8 -45 -7 -45 -1 43
c-3 58 -24 55 -92 -13 -30 -30 -73 -64 -96 -74 -52 -25 -150 -48 -240 -57 -64
-7 -68 -6 -55 9 15 19 26 23 16 7 -8 -12 26 -12 80 0 38 9 37 9 -12 4 l-52 -5
10 30 c6 17 9 38 6 48 -3 13 -5 11 -6 -7 -1 -14 -6 -32 -12 -40 -9 -13 -10
-12 -5 3 3 9 9 48 13 85 7 64 8 65 14 27 4 -22 4 -7 2 34 -5 72 -26 127 -44
115 -5 -3 -6 1 -3 9 10 27 -65 63 -80 38z"/>
<path d="M5429 2874 c-1 -5 -1 -12 0 -16 0 -5 -5 -8 -13 -8 -24 0 -27 -31 -10
-104 25 -104 46 -177 51 -172 3 2 -3 25 -11 50 -9 26 -16 57 -15 69 0 12 7 0
14 -28 8 -27 21 -75 29 -105 18 -62 20 -98 6 -120 -7 -10 -8 -4 -4 20 3 19 2
50 -3 69 -7 27 -9 20 -9 -42 0 -49 4 -73 11 -69 5 3 3 -5 -6 -18 -33 -50 -114
-90 -185 -90 -30 0 -173 48 -147 50 7 0 35 -9 63 -20 56 -22 97 -25 151 -10
44 12 101 50 106 70 3 9 -3 6 -14 -6 -50 -60 -152 -78 -245 -44 -35 13 -69 28
-77 34 -12 9 -13 7 -8 -9 7 -19 6 -19 -7 -2 -7 9 -16 17 -19 17 -4 0 -32 -22
-62 -50 -107 -97 -238 -141 -425 -144 -97 -1 -126 3 -185 23 -114 38 -186 79
-248 138 -50 47 -61 54 -85 48 -15 -3 -31 -11 -36 -16 -12 -11 20 -83 33 -75
5 3 8 -2 7 -12 0 -9 6 -17 14 -18 8 0 31 -10 50 -22 19 -12 59 -34 88 -48 29
-14 50 -29 47 -34 -3 -5 -1 -28 4 -51 5 -23 6 -51 2 -62 -6 -15 -8 -7 -10 29
-4 84 -6 94 -13 94 -10 0 -10 -16 1 -63 15 -64 3 -83 -89 -145 -52 -35 -86
-65 -88 -77 -3 -17 -1 -17 7 -5 9 13 11 13 11 -1 0 -46 153 -36 208 13 l27 23
-24 -28 c-29 -33 -87 -50 -152 -45 -26 1 -45 0 -42 -4 6 -11 92 -10 132 2 76
22 131 105 131 199 l0 61 26 -10 c33 -13 262 -13 342 0 93 15 262 75 313 111
26 19 28 18 83 -6 43 -19 72 -25 119 -23 l62 1 -70 6 c-39 4 -92 16 -119 29
-47 21 -49 21 -75 3 -54 -38 -223 -96 -321 -112 -76 -11 -324 -8 -352 5 -16 7
-18 1 -18 -60 0 -38 -4 -75 -9 -82 -7 -11 -6 51 3 131 1 15 -2 27 -7 27 -6 0
-8 2 -5 5 3 3 21 -2 41 -10 43 -18 256 -21 355 -5 93 15 262 75 313 111 25 18
27 17 90 -8 56 -22 73 -25 139 -20 91 7 160 35 215 85 l40 37 -39 -42 c-35
-38 -101 -73 -161 -86 -18 -4 -18 -5 2 -6 67 -3 201 96 224 167 14 42 6 129
-21 232 -11 41 -20 86 -20 100 0 37 -43 121 -79 154 -17 17 -32 26 -32 20z"/>
</g>
</svg>
