<?xml version="1.0" encoding="utf-8"?>
<!-- Generator: Adobe Illustrator 22.0.1, SVG Export Plug-In . SVG Version: 6.00 Build 0)  -->
<svg version="1.1" baseProfile="tiny" id="Слой_1"
	 xmlns="http://www.w3.org/2000/svg" xmlns:xlink="http://www.w3.org/1999/xlink" x="0px" y="0px" viewBox="0 0 400 100"
	 xml:space="preserve">
<g>
	<path d="M19.2,15.3h-0.8c-0.6,0-1.1,0.2-1.5,0.6c-0.6,0.6-1.3,1.8-1.9,3.8c-1,3.1-1.8,6.9-2.5,11.3c-0.7,4.4-1,7.2-1,8.3v0.9
		c0,0.2-0.1,0.4-0.2,0.5C11.1,40.9,11,41,10.9,41c-0.2,0-0.3-0.1-0.4-0.2c-0.1-0.2-0.2-0.3-0.2-0.5v-26h26.1v26
		c0,0.2-0.1,0.3-0.2,0.5c-0.1,0.1-0.2,0.2-0.4,0.2c-0.1,0-0.3-0.1-0.4-0.2c-0.1-0.1-0.2-0.3-0.2-0.5v-1.6c0-1.6-0.4-4.5-1.1-8.7
		c-0.8-4.2-1.6-7.8-2.6-10.7c-0.6-1.9-1.2-3-1.6-3.4c-0.4-0.4-0.8-0.6-1.2-0.6h-1.3V75h3.1c0.3,0.2,0.4,0.4,0.4,0.5
		c0,0.2-0.1,0.3-0.4,0.5H15.7c-0.1,0-0.2,0-0.3-0.1c-0.1-0.1-0.1-0.2-0.1-0.4c0-0.2,0-0.3,0.1-0.4s0.2-0.1,0.3-0.1h3.5V15.3z"/>
	<path d="M41,15.3h-2.4c-0.3-0.2-0.4-0.3-0.4-0.5c0-0.2,0.1-0.3,0.4-0.5h12.6c3.1,0,5.8,1.4,8.1,4.1c2.3,2.7,3.5,6.4,3.5,11.2
		c0,2.7-0.4,5.1-1.3,7.2c-0.9,2.1-2.2,3.8-3.9,5.2c-1,0.8-2.7,1.6-4.8,2.4c2.4,0.7,4.1,1.4,5.1,2.1c1.6,1.1,2.8,2.5,3.6,4.1
		s1.2,3.7,1.2,6.3v15c0,0.7,0.1,1.2,0.3,1.4c0.2,0.3,0.5,0.4,0.8,0.4c0.5,0,1-0.3,1.4-1c0.7-1.1,1.1-3.1,1.3-5.9
		c0-0.5,0.1-0.8,0.2-1s0.2-0.2,0.4-0.2c0.2,0,0.3,0.1,0.4,0.3c0.1,0.2,0.2,0.6,0.2,1.2c0,3-0.7,5.4-2.1,7c-1.4,1.7-3.2,2.5-5.4,2.5
		c-1.9,0-3.4-0.5-4.4-1.5c-1-1-1.5-2.4-1.5-4.3V49.1c0-1.9-0.5-3.1-1.4-3.7c-0.5-0.4-1.8-0.5-3.7-0.5V75h2c0.2,0,0.4,0.1,0.5,0.2
		c0.1,0.1,0.2,0.2,0.2,0.4s-0.1,0.3-0.2,0.4c-0.1,0.1-0.3,0.2-0.5,0.2H38.6c-0.2,0-0.3,0-0.4-0.1c-0.1-0.1-0.2-0.2-0.2-0.4
		c0-0.2,0.1-0.3,0.2-0.4c0.1-0.1,0.2-0.1,0.4-0.1H41V15.3z M49.3,15.3v28.4h2c0.9,0,1.7-0.3,2.3-1c0.6-0.7,0.9-1.6,0.9-2.9V18.6
		c0-1.2-0.2-2.1-0.6-2.5c-0.4-0.5-1.3-0.7-2.5-0.7H49.3z"/>
	<path d="M79.4,15.1h4.4L91,75h1.8c0.3,0.2,0.4,0.4,0.4,0.5c0,0.2-0.1,0.3-0.4,0.5H80.7c-0.1,0-0.2,0-0.3-0.1
		c-0.1-0.1-0.1-0.2-0.1-0.4c0-0.2,0-0.3,0.1-0.4c0.1-0.1,0.2-0.1,0.3-0.1h1.9l-1-11.7h-7.4l-0.8,6.6c0,0.4,0,0.7,0,1.1
		c0,1.2,0.2,2.1,0.7,2.7c0.4,0.6,1.1,1,1.8,1.1l0.6,0.2c0.1,0.1,0.2,0.2,0.2,0.4c0,0.2,0,0.3-0.1,0.4c-0.1,0.1-0.2,0.1-0.3,0.1h-6.9
		c-0.1,0-0.2,0-0.3-0.1c-0.1-0.1-0.1-0.2-0.1-0.4c0-0.2,0-0.3,0.1-0.4l0.5-0.2c0.8-0.1,1.4-0.5,1.8-1.1c0.6-1,1.1-2.5,1.4-4.8
		L79.4,15.1z M78.3,30.4l-4,31.8h7.1L78.3,30.4z"/>
	<path d="M97.1,15.3h-2.4c-0.1,0-0.2,0-0.3-0.1c-0.1-0.1-0.1-0.2-0.1-0.3c0-0.2,0-0.3,0.1-0.4c0.1-0.1,0.2-0.1,0.3-0.1h13.1
		c0.1,0,0.2,0,0.3,0.1c0.1,0.1,0.1,0.2,0.1,0.3c0,0.2,0,0.3-0.1,0.4c-0.1,0.1-0.2,0.1-0.3,0.1h-2.4V75h2.4c0.3,0.2,0.4,0.4,0.4,0.5
		c0,0.2-0.1,0.4-0.4,0.5H94.4c-0.3-0.2-0.4-0.4-0.4-0.5c0-0.2,0.1-0.3,0.4-0.5h2.7V15.3z"/>
	<path d="M129.9,19.3c0-1.3-0.2-2.2-0.5-2.7c-0.3-0.5-0.8-0.9-1.5-1.1l-1.7-0.2c-0.1-0.1-0.2-0.2-0.2-0.5c0-0.2,0-0.4,0.1-0.5
		c0.1-0.1,0.2-0.1,0.5-0.1h7.1c0.1,0,0.2,0,0.3,0.1c0.1,0.1,0.1,0.2,0.1,0.3c0,0.1,0,0.2-0.1,0.3c-0.1,0.1-0.3,0.2-0.7,0.3
		c-0.8,0.3-1.4,0.8-1.7,1.3c-0.3,0.5-0.5,1.5-0.6,3V76h-6.2l-10-56.2v50.9c0,1.4,0.1,2.4,0.4,2.9c0.3,0.6,0.8,1,1.4,1.2l1.8,0.2
		c0.1,0.1,0.2,0.2,0.2,0.5c0,0.2,0,0.4-0.1,0.4c-0.1,0.1-0.2,0.1-0.5,0.1h-7.1c-0.1,0-0.2,0-0.3-0.1s-0.1-0.2-0.1-0.3s0-0.2,0.1-0.3
		c0.1-0.1,0.3-0.2,0.7-0.3c0.8-0.3,1.4-0.8,1.7-1.3c0.3-0.5,0.5-1.5,0.6-3V15.3h-2.3c-0.1,0-0.2,0-0.3-0.1c-0.1-0.1-0.1-0.2-0.1-0.4
		c0-0.1,0-0.3,0.1-0.3c0.1-0.1,0.2-0.1,0.3-0.1h10.4l8.1,45.2V19.3z"/>
	<path d="M155.4,45.4l-6.6-30.1h-1.6c-0.1,0-0.2,0-0.3-0.1c-0.1-0.1-0.1-0.2-0.1-0.4c0-0.2,0-0.3,0.1-0.4c0.1-0.1,0.2-0.1,0.3-0.1
		h13.1c0.3,0.2,0.4,0.3,0.4,0.5c0,0.2-0.1,0.4-0.4,0.6h-3.2l6.2,28l4.7-21.8c0.2-0.8,0.3-1.6,0.3-2.3c0-1-0.2-1.9-0.5-2.5
		c-0.3-0.6-0.8-1.1-1.3-1.3l-1.3-0.2c-0.2-0.1-0.2-0.2-0.2-0.5c0-0.2,0.1-0.4,0.4-0.6h6.6c0.3,0,0.5,0,0.6,0.1l0.1,0.2
		c0,0.2-0.2,0.4-0.5,0.6c-1.3,0.8-2.3,2.4-2.8,4.7l-5.6,25.5V75h3.2c0.1,0,0.2,0,0.3,0.1c0.1,0.1,0.1,0.2,0.1,0.4
		c0,0.2,0,0.3-0.1,0.4c-0.1,0.1-0.2,0.1-0.3,0.1h-14.8c-0.1,0-0.2,0-0.3-0.1c-0.1-0.1-0.1-0.2-0.1-0.4c0-0.2,0-0.3,0.1-0.4
		c0.1-0.1,0.2-0.1,0.3-0.1h3.3V45.4z"/>
	<path d="M197.2,38.1v15.1c0,8.7-1.4,15.1-4.1,19.1c-1.9,2.8-4.2,4.2-7,4.2c-1.9,0-3.7-0.7-5.3-2.1c-1.6-1.4-2.9-3.4-3.8-6.2
		c-1.5-4.4-2.2-9.2-2.2-14.5V36.1c0-8.3,1.4-14.4,4.1-18.4c1.9-2.8,4.2-4.1,7-4.1c1.3,0,2.6,0.3,3.7,0.9s2.1,1.5,3,2.7
		s1.7,2.8,2.4,4.7c0.7,2,1.2,4,1.5,6.1C196.9,31.6,197.2,35,197.2,38.1z M183.3,69.9c0,2.1,0.3,3.7,1,4.6c0.5,0.7,1.1,1,1.8,1
		c0.7,0,1.3-0.3,1.8-0.9c0.5-0.6,0.8-1.5,0.8-2.6V19.3c0-1.5-0.3-2.7-1-3.5c-0.5-0.6-1-0.9-1.7-0.9c-0.6,0-1.2,0.3-1.6,0.9
		c-0.6,0.8-0.9,2-0.9,3.6V69.9z"/>
	<path d="M202.7,15.3h-2.4c-0.3-0.2-0.4-0.4-0.4-0.5c0-0.2,0.1-0.3,0.4-0.5h12.9c0.1,0,0.2,0,0.3,0.1c0.1,0.1,0.1,0.2,0.1,0.3
		c0,0.2,0,0.3-0.1,0.4c-0.1,0.1-0.2,0.1-0.3,0.1h-2.3v56.5c0,1.2,0.3,2,0.9,2.7c0.6,0.6,1.5,0.9,2.5,0.9c1.9,0,3.5-0.8,4.8-2.3
		s1.9-4,1.9-7.3V20.6c0-2.1-0.2-3.4-0.5-3.9c-0.3-0.6-1-1-1.9-1.2c-0.5-0.1-0.8-0.2-0.9-0.4c-0.1-0.1-0.2-0.3-0.2-0.5l0.1-0.3
		l0.3-0.1h6.3c0.2,0,0.4,0.1,0.6,0.4c0,0.1-0.1,0.3-0.2,0.4c-0.1,0.1-0.3,0.2-0.6,0.2c-0.5,0.1-1,0.4-1.2,0.9
		c-0.5,0.9-0.8,2.3-0.8,4.3v46.4c0,3.2-0.8,5.6-2.4,7.2c-1.6,1.6-3.9,2.5-6.9,2.5c-3.8,0-6.5-1-8.2-3c-1.2-1.4-1.8-4-1.8-7.9V15.3z"
		/>
	<path d="M229.5,15.3h-2.4c-0.3-0.2-0.4-0.3-0.4-0.5c0-0.2,0.1-0.3,0.4-0.5h12.6c3.1,0,5.8,1.4,8.1,4.1c2.3,2.7,3.5,6.4,3.5,11.2
		c0,2.7-0.4,5.1-1.3,7.2c-0.9,2.1-2.2,3.8-3.9,5.2c-1,0.8-2.7,1.6-4.8,2.4c2.4,0.7,4.1,1.4,5.1,2.1c1.6,1.1,2.8,2.5,3.6,4.1
		c0.8,1.6,1.2,3.7,1.2,6.3v15c0,0.7,0.1,1.2,0.3,1.4c0.2,0.3,0.5,0.4,0.8,0.4c0.5,0,1-0.3,1.4-1c0.7-1.1,1.1-3.1,1.3-5.9
		c0-0.5,0.1-0.8,0.2-1c0.1-0.2,0.2-0.2,0.4-0.2c0.2,0,0.3,0.1,0.4,0.3c0.1,0.2,0.2,0.6,0.2,1.2c0,3-0.7,5.4-2.1,7
		c-1.4,1.7-3.2,2.5-5.4,2.5c-1.9,0-3.4-0.5-4.4-1.5c-1-1-1.5-2.4-1.5-4.3V49.1c0-1.9-0.5-3.1-1.4-3.7c-0.5-0.4-1.8-0.5-3.7-0.5V75h2
		c0.2,0,0.4,0.1,0.5,0.2c0.1,0.1,0.2,0.2,0.2,0.4s-0.1,0.3-0.2,0.4c-0.1,0.1-0.3,0.2-0.5,0.2h-12.7c-0.2,0-0.3,0-0.4-0.1
		c-0.1-0.1-0.2-0.2-0.2-0.4c0-0.2,0.1-0.3,0.2-0.4c0.1-0.1,0.2-0.1,0.4-0.1h2.4V15.3z M237.8,15.3v28.4h2c0.9,0,1.7-0.3,2.3-1
		c0.6-0.7,0.9-1.6,0.9-2.9V18.6c0-1.2-0.2-2.1-0.6-2.5c-0.4-0.5-1.3-0.7-2.5-0.7H237.8z"/>
	<path d="M271.9,75V15.3h-2.7c-0.3-0.2-0.4-0.4-0.4-0.5c0-0.1,0.1-0.3,0.4-0.5h11.9c3.6,0,6.6,1.3,8.9,3.9c2.3,2.6,3.5,6.2,3.5,10.8
		c0,2.8-0.4,5.3-1.2,7.4c-0.8,2.1-2,3.8-3.7,5.2c-1,0.9-2.6,1.7-4.7,2.5c2.2,0.8,3.8,1.7,4.9,2.5c1.7,1.4,2.9,3.1,3.8,5.1
		c0.9,2,1.3,4.4,1.3,7.3c0,3.7-0.6,7.1-1.9,10c-0.9,2-2.3,3.7-4.2,5.1c-2,1.4-4.3,2-7,2h-11.5c-0.3-0.2-0.4-0.4-0.4-0.5
		c0-0.2,0.1-0.3,0.4-0.5H271.9z M280.1,15.3v28.2h2.1c1,0,1.7-0.2,2.2-0.7c0.5-0.5,0.7-1.3,0.7-2.5V18.9c0-1.4-0.2-2.3-0.7-2.8
		c-0.5-0.5-1.4-0.8-2.8-0.8H280.1z M280.1,44.6v30.3h1.3c1.1,0,2-0.3,2.7-1c0.7-0.7,1-1.5,1-2.7V47.4c0-1-0.2-1.7-0.6-2.2
		c-0.4-0.4-1-0.7-1.8-0.7H280.1z"/>
	<path d="M298.8,15.3h-2.4c-0.3-0.2-0.4-0.3-0.4-0.5c0-0.2,0.1-0.3,0.4-0.5h12.6c3.1,0,5.8,1.4,8.1,4.1c2.3,2.7,3.5,6.4,3.5,11.2
		c0,2.7-0.4,5.1-1.3,7.2c-0.9,2.1-2.2,3.8-3.9,5.2c-1,0.8-2.7,1.6-4.8,2.4c2.4,0.7,4.1,1.4,5.1,2.1c1.6,1.1,2.8,2.5,3.6,4.1
		c0.8,1.6,1.2,3.7,1.2,6.3v15c0,0.7,0.1,1.2,0.3,1.4c0.2,0.3,0.5,0.4,0.8,0.4c0.5,0,1-0.3,1.4-1c0.7-1.1,1.1-3.1,1.3-5.9
		c0-0.5,0.1-0.8,0.2-1c0.1-0.2,0.2-0.2,0.4-0.2c0.2,0,0.3,0.1,0.4,0.3c0.1,0.2,0.2,0.6,0.2,1.2c0,3-0.7,5.4-2.1,7
		c-1.4,1.7-3.2,2.5-5.4,2.5c-1.9,0-3.4-0.5-4.4-1.5c-1-1-1.5-2.4-1.5-4.3V49.1c0-1.9-0.5-3.1-1.4-3.7c-0.5-0.4-1.8-0.5-3.7-0.5V75h2
		c0.2,0,0.4,0.1,0.5,0.2c0.1,0.1,0.2,0.2,0.2,0.4s-0.1,0.3-0.2,0.4c-0.1,0.1-0.3,0.2-0.5,0.2h-12.7c-0.2,0-0.3,0-0.4-0.1
		c-0.1-0.1-0.2-0.2-0.2-0.4c0-0.2,0.1-0.3,0.2-0.4c0.1-0.1,0.2-0.1,0.4-0.1h2.4V15.3z M307.2,15.3v28.4h2c0.9,0,1.7-0.3,2.3-1
		c0.6-0.7,0.9-1.6,0.9-2.9V18.6c0-1.2-0.2-2.1-0.6-2.5c-0.4-0.5-1.3-0.7-2.5-0.7H307.2z"/>
	<path d="M337.2,15.1h4.4l7.2,59.8h1.8c0.3,0.2,0.4,0.4,0.4,0.5c0,0.2-0.1,0.3-0.4,0.5h-12.1c-0.1,0-0.2,0-0.3-0.1
		c-0.1-0.1-0.1-0.2-0.1-0.4c0-0.2,0-0.3,0.1-0.4c0.1-0.1,0.2-0.1,0.3-0.1h1.9l-1-11.7H332l-0.8,6.6c0,0.4,0,0.7,0,1.1
		c0,1.2,0.2,2.1,0.7,2.7c0.4,0.6,1.1,1,1.8,1.1l0.6,0.2c0.1,0.1,0.2,0.2,0.2,0.4c0,0.2,0,0.3-0.1,0.4c-0.1,0.1-0.2,0.1-0.3,0.1h-6.9
		c-0.1,0-0.2,0-0.3-0.1s-0.1-0.2-0.1-0.4c0-0.2,0-0.3,0.1-0.4l0.5-0.2c0.8-0.1,1.4-0.5,1.8-1.1c0.6-1,1.1-2.5,1.4-4.8L337.2,15.1z
		 M336.1,30.4l-4,31.8h7.1L336.1,30.4z"/>
	<path d="M355,15.3h-2.4c-0.1,0-0.2,0-0.3-0.1c-0.1-0.1-0.1-0.2-0.1-0.3c0-0.2,0-0.3,0.1-0.4c0.1-0.1,0.2-0.1,0.3-0.1h13.1
		c0.1,0,0.2,0,0.3,0.1c0.1,0.1,0.1,0.2,0.1,0.3c0,0.2,0,0.3-0.1,0.4c-0.1,0.1-0.2,0.1-0.3,0.1h-2.4V75h2.4c0.3,0.2,0.4,0.4,0.4,0.5
		c0,0.2-0.1,0.4-0.4,0.5h-13.4c-0.3-0.2-0.4-0.4-0.4-0.5c0-0.2,0.1-0.3,0.4-0.5h2.7V15.3z"/>
	<path d="M387.8,19.3c0-1.3-0.2-2.2-0.5-2.7c-0.3-0.5-0.8-0.9-1.5-1.1l-1.7-0.2c-0.1-0.1-0.2-0.2-0.2-0.5c0-0.2,0-0.4,0.1-0.5
		c0.1-0.1,0.2-0.1,0.5-0.1h7.1c0.1,0,0.2,0,0.3,0.1c0.1,0.1,0.1,0.2,0.1,0.3c0,0.1,0,0.2-0.1,0.3c-0.1,0.1-0.3,0.2-0.7,0.3
		c-0.8,0.3-1.4,0.8-1.7,1.3s-0.5,1.5-0.6,3V76h-6.2l-10-56.2v50.9c0,1.4,0.1,2.4,0.4,2.9c0.3,0.6,0.8,1,1.4,1.2l1.8,0.2
		c0.1,0.1,0.2,0.2,0.2,0.5c0,0.2,0,0.4-0.1,0.4c-0.1,0.1-0.2,0.1-0.5,0.1h-7.1c-0.1,0-0.2,0-0.3-0.1c-0.1-0.1-0.1-0.2-0.1-0.3
		s0-0.2,0.1-0.3c0.1-0.1,0.3-0.2,0.7-0.3c0.8-0.3,1.4-0.8,1.7-1.3c0.3-0.5,0.5-1.5,0.6-3V15.3h-2.3c-0.1,0-0.2,0-0.3-0.1
		c-0.1-0.1-0.1-0.2-0.1-0.4c0-0.1,0-0.3,0.1-0.3c0.1-0.1,0.2-0.1,0.3-0.1h10.4l8.1,45.2V19.3z"/>
</g>
</svg>
