<svg  id="Rein" xmlns:svg="http://www.w3.org/2000/svg" xmlns="http://www.w3.org/2000/svg" 
width="228" height="366" viewBox="274.99 129 114 183" >
<title>animation Reindeer</title> 
  <desc>Prohibited copying without specifying an indexed reference to the source svg-art.ru</desc>    
 <g>
      <path  stroke-width="0.8" stroke="saddlebrown" stroke-dasharray="953" stroke-dashoffset="0" d="m344 129c-2 0-5 3-6 4-5 6-2 10 2 15 4 5 8 8 12 12-1 0-2 1-3 2-5-6-10-5-15-3 4 4 4 9 14 11l3 20c2 11 1 10-5 13-7 3-18 4-31 1-8-4-17-5-24-2l0 0c-3-2-5-6-6-11-3 5-5 9 0 15-1 6-4 12-3 18 2 15 6 16 4 18-3 4-5 8-9 11l1 47-2 5c3 2 7 3 10 2l-2-6-1-17 3-23c4-7 4-8 8-14l3 14c9 13 16 27 22 42l-1 7c3 2 7 2 10 0-6-16-10-32-20-48 6-5 11-12 13-21 13 5 18 2 28 1-1 8-3 15-2 23l-6 15 3 22-4 6c2 2 7 5 10 2l0-27c15-5 26-10 34-22 4-3 6-7 3-12-7-6-12-12-16-17 8-16 8-22 1-36l-4-11c7-1 9-2 15-5 9-3 6-7 4-10-7 0-14 2-17-3-3-4-5-9-12-8l-3-3c5-4 7-5 9-10 1-4-1-6-3-8-6-8-7-1-6 1l2 5c3 5-3 8-7 10-3-3-6-6-8-9-4-5 4-8 3-12 0-1-1-1-2-1m366 242c-3 8-8 20-12 32 8-4 12-6 19-13 5-5 6-8 0-13z" fill="none">
      	  <animate id="p1" attributeName="stroke-dashoffset" begin="Rein.click" values="0; 953; 0" dur="20s" repeatCount="1"          fill="freeze"  calcMode="linear" restart="whenNotActive"/>
				 
	  </path>
	 <path  stroke-width="1"  d="m366 242c-3 8-8 20-12 32 8-4 12-6 19-13 5-5 6-8 0-13z" fill="#DDDDDD"/> 	
  </g>
         <text  x="320" y="190" font-size="10" font-family="Ariel" text-anchor="middle" 
        fill="none" stroke="saddlebrown" stroke-width="0.5px" >Click me</text>
</svg>
